<svg width="642" height="1162" viewBox="0 0 642 1162" fill="none" xmlns="http://www.w3.org/2000/svg">
<rect y="1162" width="1162" height="641.701" rx="69.3731" transform="rotate(-90 0 1162)" fill="white"/>
<g filter="url(#filter0_b_133_279)">
<rect y="1162" width="1162" height="641.701" rx="69.3731" transform="rotate(-90 0 1162)" fill="white" fill-opacity="0.03"/>
</g>
<path d="M537.872 1062.1C537.872 1064.47 537.428 1066.51 536.54 1068.21C535.615 1069.91 534.301 1071.32 532.599 1072.43C530.897 1073.54 528.807 1074.35 526.328 1074.87C523.849 1075.39 521.019 1075.64 517.837 1075.64C514.692 1075.64 511.88 1075.39 509.401 1074.87C506.885 1074.35 504.776 1073.54 503.074 1072.43C501.372 1071.32 500.077 1069.91 499.189 1068.21C498.264 1066.51 497.802 1064.47 497.802 1062.1C497.802 1059.73 498.264 1057.7 499.189 1056C500.077 1054.3 501.372 1052.89 503.074 1051.78C504.776 1050.67 506.885 1049.86 509.401 1049.34C511.88 1048.82 514.692 1048.56 517.837 1048.56C521.019 1048.56 523.849 1048.82 526.328 1049.34C528.807 1049.86 530.897 1050.67 532.599 1051.78C534.301 1052.89 535.615 1054.3 536.54 1056C537.428 1057.7 537.872 1059.73 537.872 1062.1ZM533.82 1062.1C533.82 1060.55 533.524 1059.22 532.932 1058.11C532.303 1057 531.434 1056.11 530.324 1055.44C529.214 1054.74 527.882 1054.22 526.328 1053.89C524.737 1053.56 522.961 1053.39 521 1053.39H514.673C512.749 1053.39 510.992 1053.56 509.401 1053.89C507.81 1054.22 506.459 1054.74 505.349 1055.44C504.239 1056.11 503.388 1057 502.796 1058.11C502.168 1059.22 501.853 1060.55 501.853 1062.1C501.853 1063.66 502.168 1064.99 502.796 1066.1C503.388 1067.21 504.239 1068.11 505.349 1068.82C506.459 1069.48 507.81 1069.98 509.401 1070.32C510.992 1070.65 512.749 1070.82 514.673 1070.82H521C522.961 1070.82 524.737 1070.65 526.328 1070.32C527.882 1069.98 529.214 1069.48 530.324 1068.82C531.434 1068.11 532.303 1067.21 532.932 1066.1C533.524 1064.99 533.82 1063.66 533.82 1062.1ZM521.111 1062.1C521.111 1063.4 520.852 1064.3 520.334 1064.82C519.816 1065.3 519.187 1065.54 518.447 1065.54H517.226C516.486 1065.54 515.857 1065.3 515.339 1064.82C514.821 1064.3 514.562 1063.4 514.562 1062.1C514.562 1060.81 514.821 1059.92 515.339 1059.44C515.857 1058.92 516.486 1058.66 517.226 1058.66H518.447C519.187 1058.66 519.816 1058.92 520.334 1059.44C520.852 1059.92 521.111 1060.81 521.111 1062.1ZM537.872 1028.82C537.872 1031.19 537.428 1033.23 536.54 1034.93C535.615 1036.63 534.301 1038.04 532.599 1039.15C530.897 1040.26 528.807 1041.07 526.328 1041.59C523.849 1042.11 521.019 1042.37 517.837 1042.37C514.692 1042.37 511.88 1042.11 509.401 1041.59C506.885 1041.07 504.776 1040.26 503.074 1039.15C501.372 1038.04 500.077 1036.63 499.189 1034.93C498.264 1033.23 497.802 1031.19 497.802 1028.82C497.802 1026.46 498.264 1024.42 499.189 1022.72C500.077 1021.02 501.372 1019.61 503.074 1018.5C504.776 1017.39 506.885 1016.58 509.401 1016.06C511.88 1015.54 514.692 1015.28 517.837 1015.28C521.019 1015.28 523.849 1015.54 526.328 1016.06C528.807 1016.58 530.897 1017.39 532.599 1018.5C534.301 1019.61 535.615 1021.02 536.54 1022.72C537.428 1024.42 537.872 1026.46 537.872 1028.82ZM533.82 1028.82C533.82 1027.27 533.524 1025.94 532.932 1024.83C532.303 1023.72 531.434 1022.83 530.324 1022.17C529.214 1021.46 527.882 1020.94 526.328 1020.61C524.737 1020.28 522.961 1020.11 521 1020.11H514.673C512.749 1020.11 510.992 1020.28 509.401 1020.61C507.81 1020.94 506.459 1021.46 505.349 1022.17C504.239 1022.83 503.388 1023.72 502.796 1024.83C502.168 1025.94 501.853 1027.27 501.853 1028.82C501.853 1030.38 502.168 1031.71 502.796 1032.82C503.388 1033.93 504.239 1034.84 505.349 1035.54C506.459 1036.21 507.81 1036.71 509.401 1037.04C510.992 1037.37 512.749 1037.54 514.673 1037.54H521C522.961 1037.54 524.737 1037.37 526.328 1037.04C527.882 1036.71 529.214 1036.21 530.324 1035.54C531.434 1034.84 532.303 1033.93 532.932 1032.82C533.524 1031.71 533.82 1030.38 533.82 1028.82ZM521.111 1028.82C521.111 1030.12 520.852 1031.03 520.334 1031.54C519.816 1032.03 519.187 1032.27 518.447 1032.27H517.226C516.486 1032.27 515.857 1032.03 515.339 1031.54C514.821 1031.03 514.562 1030.12 514.562 1028.82C514.562 1027.53 514.821 1026.64 515.339 1026.16C515.857 1025.64 516.486 1025.38 517.226 1025.38H518.447C519.187 1025.38 519.816 1025.64 520.334 1026.16C520.852 1026.64 521.111 1027.53 521.111 1028.82ZM537.872 995.548C537.872 997.915 537.428 999.95 536.54 1001.65C535.615 1003.35 534.301 1004.76 532.599 1005.87C530.897 1006.98 528.807 1007.79 526.328 1008.31C523.849 1008.83 521.019 1009.09 517.837 1009.09C514.692 1009.09 511.88 1008.83 509.401 1008.31C506.885 1007.79 504.776 1006.98 503.074 1005.87C501.372 1004.76 500.077 1003.35 499.189 1001.65C498.264 999.95 497.802 997.915 497.802 995.548C497.802 993.18 498.264 991.145 499.189 989.443C500.077 987.741 501.372 986.335 503.074 985.225C504.776 984.115 506.885 983.301 509.401 982.783C511.88 982.265 514.692 982.006 517.837 982.006C521.019 982.006 523.849 982.265 526.328 982.783C528.807 983.301 530.897 984.115 532.599 985.225C534.301 986.335 535.615 987.741 536.54 989.443C537.428 991.145 537.872 993.18 537.872 995.548ZM533.82 995.548C533.82 993.994 533.524 992.662 532.932 991.552C532.303 990.442 531.434 989.554 530.324 988.888C529.214 988.185 527.882 987.667 526.328 987.334C524.737 987.001 522.961 986.834 521 986.834H514.673C512.749 986.834 510.992 987.001 509.401 987.334C507.81 987.667 506.459 988.185 505.349 988.888C504.239 989.554 503.388 990.442 502.796 991.552C502.168 992.662 501.853 993.994 501.853 995.548C501.853 997.102 502.168 998.433 502.796 999.543C503.388 1000.65 504.239 1001.56 505.349 1002.26C506.459 1002.93 507.81 1003.43 509.401 1003.76C510.992 1004.09 512.749 1004.26 514.673 1004.26H521C522.961 1004.26 524.737 1004.09 526.328 1003.76C527.882 1003.43 529.214 1002.93 530.324 1002.26C531.434 1001.56 532.303 1000.65 532.932 999.543C533.524 998.433 533.82 997.102 533.82 995.548ZM521.111 995.548C521.111 996.843 520.852 997.749 520.334 998.267C519.816 998.748 519.187 998.988 518.447 998.988H517.226C516.486 998.988 515.857 998.748 515.339 998.267C514.821 997.749 514.562 996.843 514.562 995.548C514.562 994.253 514.821 993.365 515.339 992.884C515.857 992.366 516.486 992.107 517.226 992.107H518.447C519.187 992.107 519.816 992.366 520.334 992.884C520.852 993.365 521.111 994.253 521.111 995.548ZM537.872 962.27C537.872 964.638 537.428 966.673 536.54 968.375C535.615 970.077 534.301 971.483 532.599 972.593C530.897 973.703 528.807 974.517 526.328 975.035C523.849 975.553 521.019 975.812 517.837 975.812C514.692 975.812 511.88 975.553 509.401 975.035C506.885 974.517 504.776 973.703 503.074 972.593C501.372 971.483 500.077 970.077 499.189 968.375C498.264 966.673 497.802 964.638 497.802 962.27C497.802 959.902 498.264 957.867 499.189 956.165C500.077 954.463 501.372 953.057 503.074 951.947C504.776 950.837 506.885 950.023 509.401 949.505C511.88 948.987 514.692 948.728 517.837 948.728C521.019 948.728 523.849 948.987 526.328 949.505C528.807 950.023 530.897 950.837 532.599 951.947C534.301 953.057 535.615 954.463 536.54 956.165C537.428 957.867 537.872 959.902 537.872 962.27ZM533.82 962.27C533.82 960.716 533.524 959.384 532.932 958.274C532.303 957.164 531.434 956.276 530.324 955.61C529.214 954.907 527.882 954.389 526.328 954.056C524.737 953.723 522.961 953.557 521 953.557H514.673C512.749 953.557 510.992 953.723 509.401 954.056C507.81 954.389 506.459 954.907 505.349 955.61C504.239 956.276 503.388 957.164 502.796 958.274C502.168 959.384 501.853 960.716 501.853 962.27C501.853 963.824 502.168 965.156 502.796 966.266C503.388 967.376 504.239 968.282 505.349 968.985C506.459 969.651 507.81 970.151 509.401 970.484C510.992 970.817 512.749 970.983 514.673 970.983H521C522.961 970.983 524.737 970.817 526.328 970.484C527.882 970.151 529.214 969.651 530.324 968.985C531.434 968.282 532.303 967.376 532.932 966.266C533.524 965.156 533.82 963.824 533.82 962.27ZM521.111 962.27C521.111 963.565 520.852 964.472 520.334 964.99C519.816 965.471 519.187 965.711 518.447 965.711H517.226C516.486 965.711 515.857 965.471 515.339 964.99C514.821 964.472 514.562 963.565 514.562 962.27C514.562 960.975 514.821 960.087 515.339 959.606C515.857 959.088 516.486 958.829 517.226 958.829H518.447C519.187 958.829 519.816 959.088 520.334 959.606C520.852 960.087 521.111 960.975 521.111 962.27ZM522.665 903.763H518.003L518.003 887.668H522.665L522.665 903.763ZM537.872 829.16C537.872 831.528 537.428 833.563 536.54 835.265C535.615 836.967 534.301 838.373 532.599 839.483C530.897 840.593 528.807 841.407 526.328 841.925C523.849 842.443 521.019 842.702 517.837 842.702C514.692 842.702 511.88 842.443 509.401 841.925C506.885 841.407 504.776 840.593 503.074 839.483C501.372 838.373 500.077 836.967 499.189 835.265C498.264 833.563 497.802 831.528 497.802 829.16C497.802 826.792 498.264 824.758 499.189 823.056C500.077 821.354 501.372 819.948 503.074 818.838C504.776 817.728 506.885 816.914 509.401 816.396C511.88 815.878 514.692 815.619 517.837 815.619C521.019 815.619 523.849 815.878 526.328 816.396C528.807 816.914 530.897 817.728 532.599 818.838C534.301 819.948 535.615 821.354 536.54 823.056C537.428 824.758 537.872 826.792 537.872 829.16ZM533.82 829.16C533.82 827.606 533.524 826.274 532.932 825.165C532.303 824.055 531.434 823.167 530.324 822.501C529.214 821.798 527.882 821.28 526.328 820.947C524.737 820.614 522.961 820.447 521 820.447H514.673C512.749 820.447 510.992 820.614 509.401 820.947C507.81 821.28 506.459 821.798 505.349 822.501C504.239 823.167 503.388 824.055 502.796 825.165C502.168 826.274 501.853 827.606 501.853 829.16C501.853 830.714 502.168 832.046 502.796 833.156C503.388 834.266 504.239 835.173 505.349 835.876C506.459 836.542 507.81 837.041 509.401 837.374C510.992 837.707 512.749 837.874 514.673 837.874H521C522.961 837.874 524.737 837.707 526.328 837.374C527.882 837.041 529.214 836.542 530.324 835.876C531.434 835.173 532.303 834.266 532.932 833.156C533.524 832.046 533.82 830.714 533.82 829.16ZM521.111 829.16C521.111 830.455 520.852 831.362 520.334 831.88C519.816 832.361 519.187 832.601 518.447 832.601H517.226C516.486 832.601 515.857 832.361 515.339 831.88C514.821 831.362 514.562 830.455 514.562 829.16C514.562 827.865 514.821 826.977 515.339 826.496C515.857 825.978 516.486 825.72 517.226 825.72H518.447C519.187 825.72 519.816 825.978 520.334 826.496C520.852 826.977 521.111 827.865 521.111 829.16ZM537.872 795.883C537.872 798.251 537.428 800.286 536.54 801.988C535.615 803.69 534.301 805.096 532.599 806.206C530.897 807.316 528.807 808.13 526.328 808.648C523.849 809.166 521.019 809.425 517.837 809.425C514.692 809.425 511.88 809.166 509.401 808.648C506.885 808.13 504.776 807.316 503.074 806.206C501.372 805.096 500.077 803.69 499.189 801.988C498.264 800.286 497.802 798.251 497.802 795.883C497.802 793.515 498.264 791.48 499.189 789.778C500.077 788.076 501.372 786.67 503.074 785.56C504.776 784.45 506.885 783.636 509.401 783.118C511.88 782.6 514.692 782.341 517.837 782.341C521.019 782.341 523.849 782.6 526.328 783.118C528.807 783.636 530.897 784.45 532.599 785.56C534.301 786.67 535.615 788.076 536.54 789.778C537.428 791.48 537.872 793.515 537.872 795.883ZM533.82 795.883C533.82 794.329 533.524 792.997 532.932 791.887C532.303 790.777 531.434 789.889 530.324 789.223C529.214 788.52 527.882 788.002 526.328 787.669C524.737 787.336 522.961 787.17 521 787.17H514.673C512.749 787.17 510.992 787.336 509.401 787.669C507.81 788.002 506.459 788.52 505.349 789.223C504.239 789.889 503.388 790.777 502.796 791.887C502.168 792.997 501.853 794.329 501.853 795.883C501.853 797.437 502.168 798.769 502.796 799.879C503.388 800.989 504.239 801.895 505.349 802.598C506.459 803.264 507.81 803.764 509.401 804.097C510.992 804.43 512.749 804.596 514.673 804.596H521C522.961 804.596 524.737 804.43 526.328 804.097C527.882 803.764 529.214 803.264 530.324 802.598C531.434 801.895 532.303 800.989 532.932 799.879C533.524 798.769 533.82 797.437 533.82 795.883ZM521.111 795.883C521.111 797.178 520.852 798.084 520.334 798.602C519.816 799.083 519.187 799.324 518.447 799.324H517.226C516.486 799.324 515.857 799.083 515.339 798.602C514.821 798.084 514.562 797.178 514.562 795.883C514.562 794.588 514.821 793.7 515.339 793.219C515.857 792.701 516.486 792.442 517.226 792.442H518.447C519.187 792.442 519.816 792.701 520.334 793.219C520.852 793.7 521.111 794.588 521.111 795.883ZM537.872 762.606C537.872 764.973 537.428 767.008 536.54 768.71C535.615 770.412 534.301 771.818 532.599 772.928C530.897 774.038 528.807 774.852 526.328 775.37C523.849 775.888 521.019 776.147 517.837 776.147C514.692 776.147 511.88 775.888 509.401 775.37C506.885 774.852 504.776 774.038 503.074 772.928C501.372 771.818 500.077 770.412 499.189 768.71C498.264 767.008 497.802 764.973 497.802 762.606C497.802 760.238 498.264 758.203 499.189 756.501C500.077 754.799 501.372 753.393 503.074 752.283C504.776 751.173 506.885 750.359 509.401 749.841C511.88 749.323 514.692 749.064 517.837 749.064C521.019 749.064 523.849 749.323 526.328 749.841C528.807 750.359 530.897 751.173 532.599 752.283C534.301 753.393 535.615 754.799 536.54 756.501C537.428 758.203 537.872 760.238 537.872 762.606ZM533.82 762.606C533.82 761.052 533.524 759.72 532.932 758.61C532.303 757.5 531.434 756.612 530.324 755.946C529.214 755.243 527.882 754.725 526.328 754.392C524.737 754.059 522.961 753.892 521 753.892H514.673C512.749 753.892 510.992 754.059 509.401 754.392C507.81 754.725 506.459 755.243 505.349 755.946C504.239 756.612 503.388 757.5 502.796 758.61C502.168 759.72 501.853 761.052 501.853 762.606C501.853 764.16 502.168 765.491 502.796 766.601C503.388 767.711 504.239 768.618 505.349 769.321C506.459 769.987 507.81 770.486 509.401 770.819C510.992 771.152 512.749 771.319 514.673 771.319H521C522.961 771.319 524.737 771.152 526.328 770.819C527.882 770.486 529.214 769.987 530.324 769.321C531.434 768.618 532.303 767.711 532.932 766.601C533.524 765.491 533.82 764.16 533.82 762.606ZM521.111 762.606C521.111 763.901 520.852 764.807 520.334 765.325C519.816 765.806 519.187 766.046 518.447 766.046H517.226C516.486 766.046 515.857 765.806 515.339 765.325C514.821 764.807 514.562 763.901 514.562 762.606C514.562 761.311 514.821 760.423 515.339 759.942C515.857 759.424 516.486 759.165 517.226 759.165H518.447C519.187 759.165 519.816 759.424 520.334 759.942C520.852 760.423 521.111 761.311 521.111 762.606ZM537.872 729.328C537.872 731.696 537.428 733.731 536.54 735.433C535.615 737.135 534.301 738.541 532.599 739.651C530.897 740.761 528.807 741.575 526.328 742.093C523.849 742.611 521.019 742.87 517.837 742.87C514.692 742.87 511.88 742.611 509.401 742.093C506.885 741.575 504.776 740.761 503.074 739.651C501.372 738.541 500.077 737.135 499.189 735.433C498.264 733.731 497.802 731.696 497.802 729.328C497.802 726.96 498.264 724.925 499.189 723.223C500.077 721.521 501.372 720.115 503.074 719.005C504.776 717.895 506.885 717.081 509.401 716.563C511.88 716.045 514.692 715.786 517.837 715.786C521.019 715.786 523.849 716.045 526.328 716.563C528.807 717.081 530.897 717.895 532.599 719.005C534.301 720.115 535.615 721.521 536.54 723.223C537.428 724.925 537.872 726.96 537.872 729.328ZM533.82 729.328C533.82 727.774 533.524 726.442 532.932 725.332C532.303 724.222 531.434 723.334 530.324 722.668C529.214 721.965 527.882 721.447 526.328 721.114C524.737 720.781 522.961 720.615 521 720.615H514.673C512.749 720.615 510.992 720.781 509.401 721.114C507.81 721.447 506.459 721.965 505.349 722.668C504.239 723.334 503.388 724.222 502.796 725.332C502.168 726.442 501.853 727.774 501.853 729.328C501.853 730.882 502.168 732.214 502.796 733.324C503.388 734.434 504.239 735.34 505.349 736.043C506.459 736.709 507.81 737.209 509.401 737.542C510.992 737.875 512.749 738.041 514.673 738.041H521C522.961 738.041 524.737 737.875 526.328 737.542C527.882 737.209 529.214 736.709 530.324 736.043C531.434 735.34 532.303 734.434 532.932 733.324C533.524 732.214 533.82 730.882 533.82 729.328ZM521.111 729.328C521.111 730.623 520.852 731.53 520.334 732.048C519.816 732.529 519.187 732.769 518.447 732.769H517.226C516.486 732.769 515.857 732.529 515.339 732.048C514.821 731.53 514.562 730.623 514.562 729.328C514.562 728.033 514.821 727.145 515.339 726.664C515.857 726.146 516.486 725.887 517.226 725.887H518.447C519.187 725.887 519.816 726.146 520.334 726.664C520.852 727.145 521.111 728.033 521.111 729.328ZM522.665 670.821H518.003V654.726H522.665V670.821ZM537.206 591.89H529.602V610.981H525.495L498.468 594.22V587.45H525.773V581.678H529.602V587.45H537.206V591.89ZM525.773 606.819V591.89H502.075V592.112L525.773 606.819ZM537.872 562.941C537.872 565.198 537.594 567.177 537.039 568.879C536.447 570.581 535.652 572.006 534.653 573.153C533.654 574.263 532.47 575.114 531.101 575.706C529.732 576.261 528.252 576.538 526.661 576.538C523.997 576.538 521.888 575.817 520.334 574.374C518.78 572.931 517.689 571.025 517.06 568.657H516.616C515.913 570.729 514.784 572.376 513.23 573.597C511.639 574.781 509.734 575.373 507.514 575.373C504.554 575.373 502.205 574.281 500.466 572.098C498.69 569.915 497.802 566.863 497.802 562.941C497.802 559.019 498.69 555.967 500.466 553.784C502.205 551.601 504.554 550.509 507.514 550.509C509.734 550.509 511.639 551.12 513.23 552.341C514.784 553.525 515.913 555.153 516.616 557.225H517.06C517.689 554.857 518.78 552.951 520.334 551.508C521.888 550.065 523.997 549.344 526.661 549.344C528.252 549.344 529.732 549.64 531.101 550.232C532.47 550.787 533.654 551.638 534.653 552.785C535.652 553.932 536.447 555.356 537.039 557.058C537.594 558.723 537.872 560.684 537.872 562.941ZM533.931 562.941C533.931 560.203 533.321 558.057 532.1 556.503C530.879 554.949 529.158 554.172 526.938 554.172H525.717C523.497 554.172 521.777 554.949 520.556 556.503C519.335 558.02 518.725 560.166 518.725 562.941C518.725 565.716 519.335 567.88 520.556 569.434C521.777 570.951 523.497 571.71 525.717 571.71H526.938C529.158 571.71 530.879 570.933 532.1 569.379C533.321 567.825 533.931 565.679 533.931 562.941ZM514.951 562.941C514.951 560.425 514.414 558.52 513.341 557.225C512.268 555.893 510.733 555.227 508.735 555.227H507.958C505.96 555.227 504.424 555.911 503.351 557.28C502.279 558.612 501.742 560.499 501.742 562.941C501.742 565.383 502.279 567.288 503.351 568.657C504.424 569.989 505.96 570.655 507.958 570.655H508.735C510.733 570.655 512.268 570.008 513.341 568.713C514.414 567.381 514.951 565.457 514.951 562.941ZM512.675 516.566C515.561 516.566 518.281 517.01 520.834 517.898C523.349 518.749 525.662 519.859 527.771 521.228C529.843 522.597 531.693 524.114 533.321 525.779C534.912 527.407 536.207 529.016 537.206 530.607V536.601C535.689 534.492 534.209 532.623 532.766 530.996C531.323 529.331 529.824 527.869 528.27 526.611C526.679 525.353 524.996 524.299 523.22 523.448C521.407 522.597 519.372 521.894 517.115 521.339L517.004 521.616C518.595 522.578 519.927 523.818 521 525.335C522.036 526.815 522.554 528.757 522.554 531.162C522.554 532.864 522.276 534.436 521.721 535.879C521.166 537.285 520.371 538.506 519.335 539.542C518.299 540.541 517.06 541.337 515.617 541.929C514.137 542.484 512.472 542.761 510.622 542.761C508.735 542.761 507.014 542.465 505.46 541.873C503.869 541.244 502.519 540.356 501.409 539.209C500.262 538.062 499.374 536.693 498.745 535.102C498.116 533.474 497.802 531.68 497.802 529.719C497.802 527.684 498.153 525.853 498.856 524.225C499.522 522.597 500.503 521.228 501.798 520.118C503.055 518.971 504.609 518.101 506.459 517.509C508.309 516.88 510.381 516.566 512.675 516.566ZM518.725 529.664C518.725 527 518.003 524.946 516.56 523.503C515.117 522.023 513.082 521.283 510.455 521.283H510.011C507.384 521.283 505.349 522.023 503.906 523.503C502.463 524.946 501.742 527 501.742 529.664C501.742 532.327 502.463 534.399 503.906 535.879C505.349 537.322 507.384 538.044 510.011 538.044H510.455C513.082 538.044 515.117 537.322 516.56 535.879C518.003 534.399 518.725 532.327 518.725 529.664ZM537.872 496.386C537.872 498.754 537.428 500.789 536.54 502.491C535.615 504.193 534.301 505.599 532.599 506.709C530.897 507.819 528.807 508.633 526.328 509.151C523.849 509.669 521.019 509.928 517.837 509.928C514.692 509.928 511.88 509.669 509.401 509.151C506.885 508.633 504.776 507.819 503.074 506.709C501.372 505.599 500.077 504.193 499.189 502.491C498.264 500.789 497.802 498.754 497.802 496.386C497.802 494.018 498.264 491.983 499.189 490.281C500.077 488.579 501.372 487.173 503.074 486.063C504.776 484.953 506.885 484.139 509.401 483.621C511.88 483.104 514.692 482.845 517.837 482.845C521.019 482.845 523.849 483.104 526.328 483.621C528.807 484.139 530.897 484.953 532.599 486.063C534.301 487.173 535.615 488.579 536.54 490.281C537.428 491.983 537.872 494.018 537.872 496.386ZM533.82 496.386C533.82 494.832 533.524 493.5 532.932 492.39C532.303 491.28 531.434 490.392 530.324 489.726C529.214 489.023 527.882 488.505 526.328 488.172C524.737 487.839 522.961 487.673 521 487.673H514.673C512.749 487.673 510.992 487.839 509.401 488.172C507.81 488.505 506.459 489.023 505.349 489.726C504.239 490.392 503.388 491.28 502.796 492.39C502.168 493.5 501.853 494.832 501.853 496.386C501.853 497.94 502.168 499.272 502.796 500.382C503.388 501.492 504.239 502.398 505.349 503.101C506.459 503.767 507.81 504.267 509.401 504.6C510.992 504.933 512.749 505.099 514.673 505.099H521C522.961 505.099 524.737 504.933 526.328 504.6C527.882 504.267 529.214 503.767 530.324 503.101C531.434 502.398 532.303 501.492 532.932 500.382C533.524 499.272 533.82 497.94 533.82 496.386ZM521.111 496.386C521.111 497.681 520.852 498.588 520.334 499.106C519.816 499.587 519.187 499.827 518.447 499.827H517.226C516.486 499.827 515.857 499.587 515.339 499.106C514.821 498.588 514.562 497.681 514.562 496.386C514.562 495.091 514.821 494.203 515.339 493.722C515.857 493.204 516.486 492.945 517.226 492.945H518.447C519.187 492.945 519.816 493.204 520.334 493.722C520.852 494.203 521.111 495.091 521.111 496.386ZM522.665 437.879H518.003V421.784H522.665V437.879ZM537.206 350.123V375.986H532.433L520.778 363.054C519.076 361.167 517.337 359.614 515.561 358.393C513.748 357.172 511.843 356.561 509.845 356.561H509.179C506.848 356.561 505.053 357.172 503.795 358.393C502.5 359.614 501.853 361.426 501.853 363.831C501.853 366.199 502.463 368.031 503.684 369.326C504.868 370.584 506.459 371.527 508.457 372.156L506.903 376.319C505.756 375.949 504.646 375.449 503.573 374.82C502.463 374.154 501.483 373.322 500.632 372.323C499.781 371.324 499.097 370.121 498.579 368.715C498.061 367.272 497.802 365.607 497.802 363.72C497.802 361.796 498.079 360.094 498.634 358.615C499.189 357.098 499.966 355.84 500.965 354.841C501.964 353.805 503.148 353.028 504.517 352.51C505.886 351.955 507.384 351.677 509.012 351.677C510.492 351.677 511.88 351.899 513.175 352.343C514.47 352.75 515.709 353.342 516.893 354.119C518.077 354.859 519.243 355.766 520.39 356.839C521.499 357.875 522.609 359.04 523.719 360.335L533.154 371.157V350.123H537.206ZM537.872 329.999C537.872 332.256 537.594 334.235 537.039 335.937C536.447 337.639 535.652 339.064 534.653 340.211C533.654 341.321 532.47 342.172 531.101 342.764C529.732 343.319 528.252 343.596 526.661 343.596C523.997 343.596 521.888 342.875 520.334 341.432C518.78 339.989 517.689 338.083 517.06 335.715H516.616C515.913 337.787 514.784 339.434 513.23 340.655C511.639 341.839 509.734 342.431 507.514 342.431C504.554 342.431 502.205 341.339 500.466 339.156C498.69 336.973 497.802 333.921 497.802 329.999C497.802 326.077 498.69 323.025 500.466 320.842C502.205 318.659 504.554 317.567 507.514 317.567C509.734 317.567 511.639 318.178 513.23 319.399C514.784 320.583 515.913 322.211 516.616 324.283H517.06C517.689 321.915 518.78 320.009 520.334 318.566C521.888 317.123 523.997 316.402 526.661 316.402C528.252 316.402 529.732 316.698 531.101 317.29C532.47 317.845 533.654 318.696 534.653 319.843C535.652 320.99 536.447 322.414 537.039 324.116C537.594 325.781 537.872 327.742 537.872 329.999ZM533.931 329.999C533.931 327.261 533.321 325.115 532.1 323.561C530.879 322.007 529.158 321.23 526.938 321.23H525.717C523.497 321.23 521.777 322.007 520.556 323.561C519.335 325.078 518.725 327.224 518.725 329.999C518.725 332.774 519.335 334.938 520.556 336.492C521.777 338.009 523.497 338.768 525.717 338.768H526.938C529.158 338.768 530.879 337.991 532.1 336.437C533.321 334.883 533.931 332.737 533.931 329.999ZM514.951 329.999C514.951 327.483 514.414 325.578 513.341 324.283C512.268 322.951 510.733 322.285 508.735 322.285H507.958C505.96 322.285 504.424 322.969 503.351 324.338C502.279 325.67 501.742 327.557 501.742 329.999C501.742 332.441 502.279 334.346 503.351 335.715C504.424 337.047 505.96 337.713 507.958 337.713H508.735C510.733 337.713 512.268 337.066 513.341 335.771C514.414 334.439 514.951 332.515 514.951 329.999ZM537.206 303.77L502.463 288.619L502.463 305.601H509.678V309.764H498.468L498.468 283.901H502.574L537.206 298.775V303.77ZM502.519 252.289V269.604L517.337 270.714V270.326C516.042 269.364 515.025 268.291 514.285 267.107C513.508 265.923 513.119 264.295 513.119 262.223C513.119 260.521 513.397 258.967 513.952 257.561C514.47 256.118 515.247 254.879 516.283 253.843C517.319 252.807 518.577 251.993 520.057 251.401C521.499 250.809 523.164 250.513 525.051 250.513C526.938 250.513 528.677 250.809 530.268 251.401C531.822 251.993 533.173 252.862 534.32 254.009C535.43 255.156 536.299 256.544 536.928 258.172C537.557 259.8 537.872 261.65 537.872 263.722C537.872 265.35 537.687 266.811 537.317 268.106C536.947 269.364 536.447 270.492 535.818 271.491C535.189 272.453 534.486 273.304 533.709 274.044C532.932 274.784 532.118 275.45 531.267 276.042L528.603 272.546C529.38 272.028 530.083 271.51 530.712 270.992C531.341 270.437 531.896 269.808 532.377 269.105C532.821 268.402 533.173 267.607 533.432 266.719C533.691 265.831 533.82 264.795 533.82 263.611C533.82 260.947 533.099 258.912 531.656 257.506C530.213 256.063 528.215 255.341 525.662 255.341H525.218C522.665 255.341 520.667 256.063 519.224 257.506C517.781 258.949 517.06 261.021 517.06 263.722C517.06 265.572 517.374 267.015 518.003 268.051C518.632 269.049 519.409 269.974 520.334 270.825L519.779 274.766L498.468 273.378V252.289H502.519Z" fill="black"/>
<path d="M415.22 1052.11H443.913C445.541 1052.11 447.021 1052.39 448.353 1052.95C449.685 1053.5 450.813 1054.3 451.738 1055.33C452.663 1056.33 453.385 1057.53 453.903 1058.94C454.383 1060.34 454.624 1061.88 454.624 1063.55C454.624 1066.51 453.866 1068.95 452.349 1070.87C450.795 1072.8 448.63 1074.05 445.855 1074.65L444.912 1070.21C445.689 1070.02 446.429 1069.78 447.132 1069.48C447.798 1069.15 448.39 1068.73 448.908 1068.21C449.389 1067.65 449.777 1066.99 450.073 1066.21C450.369 1065.43 450.517 1064.51 450.517 1063.43C450.517 1061.33 449.925 1059.7 448.741 1058.55C447.52 1057.37 445.633 1056.77 443.08 1056.77H419.271V1070.76H415.22V1052.11ZM454.624 1028.82C454.624 1030.82 454.272 1032.64 453.57 1034.26C452.867 1035.85 451.868 1037.22 450.573 1038.37C449.241 1039.48 447.668 1040.33 445.855 1040.92C444.005 1041.52 441.933 1041.81 439.639 1041.81C437.382 1041.81 435.329 1041.52 433.479 1040.92C431.629 1040.33 430.057 1039.48 428.762 1038.37C427.43 1037.22 426.412 1035.85 425.709 1034.26C425.006 1032.64 424.655 1030.82 424.655 1028.82C424.655 1026.83 425.006 1025.03 425.709 1023.44C426.412 1021.81 427.43 1020.44 428.762 1019.33C430.057 1018.19 431.629 1017.32 433.479 1016.73C435.329 1016.13 437.382 1015.84 439.639 1015.84C441.933 1015.84 444.005 1016.13 445.855 1016.73C447.668 1017.32 449.241 1018.19 450.573 1019.33C451.868 1020.44 452.867 1021.81 453.57 1023.44C454.272 1025.03 454.624 1026.83 454.624 1028.82ZM450.795 1028.82C450.795 1026.35 450.055 1024.35 448.575 1022.83C447.095 1021.31 444.801 1020.56 441.693 1020.56H437.586C434.478 1020.56 432.184 1021.31 430.704 1022.83C429.224 1024.35 428.484 1026.35 428.484 1028.82C428.484 1031.3 429.224 1033.3 430.704 1034.82C432.184 1036.34 434.478 1037.09 437.586 1037.09H441.693C444.801 1037.09 447.095 1036.34 448.575 1034.82C450.055 1033.3 450.795 1031.3 450.795 1028.82ZM412.889 1006.76V1002.32H429.983V1002.1C429.28 1001.8 428.614 1001.43 427.985 1000.99C427.319 1000.54 426.745 1000.01 426.264 999.377C425.783 998.711 425.395 997.934 425.099 997.046C424.803 996.158 424.655 995.122 424.655 993.938C424.655 990.941 425.617 988.536 427.541 986.723C429.428 984.91 432.11 984.004 435.588 984.004H453.958V988.444H436.365C433.738 988.444 431.796 989.017 430.538 990.164C429.243 991.311 428.595 992.995 428.595 995.215C428.595 996.103 428.706 996.972 428.928 997.823C429.15 998.674 429.483 999.432 429.927 1000.1C430.371 1000.76 430.945 1001.3 431.648 1001.71C432.351 1002.11 433.165 1002.32 434.09 1002.32H453.958V1006.76H412.889ZM453.958 973.481H425.321V969.041H429.983V968.819C429.28 968.523 428.614 968.153 427.985 967.709C427.319 967.265 426.745 966.728 426.264 966.1C425.783 965.434 425.395 964.657 425.099 963.769C424.803 962.881 424.655 961.845 424.655 960.661C424.655 957.664 425.617 955.259 427.541 953.446C429.428 951.633 432.11 950.726 435.588 950.726H453.958V955.166H436.365C433.738 955.166 431.796 955.74 430.538 956.887C429.243 958.034 428.595 959.717 428.595 961.937C428.595 962.825 428.706 963.695 428.928 964.546C429.15 965.397 429.483 966.155 429.927 966.821C430.371 967.487 430.945 968.023 431.648 968.43C432.351 968.837 433.165 969.041 434.09 969.041H453.958V973.481ZM415.22 907.092V896.27C415.22 891.534 416.848 888.001 420.104 885.67C423.36 883.339 428.188 882.174 434.589 882.174C440.99 882.174 445.818 883.339 449.074 885.67C452.33 888.001 453.958 891.534 453.958 896.27V907.092H415.22ZM449.907 896.492C449.907 893.384 448.834 891.053 446.688 889.499C444.542 887.908 441.508 887.113 437.586 887.113H431.592C427.67 887.113 424.636 887.908 422.49 889.499C420.344 891.053 419.271 893.384 419.271 896.492V902.431L449.907 902.431V896.492ZM454.624 862.438C454.624 864.436 454.272 866.249 453.57 867.877C452.867 869.468 451.868 870.837 450.573 871.984C449.241 873.094 447.668 873.945 445.855 874.537C444.005 875.128 441.933 875.424 439.639 875.424C437.382 875.424 435.329 875.128 433.479 874.537C431.629 873.945 430.057 873.094 428.762 871.984C427.43 870.837 426.412 869.468 425.709 867.877C425.006 866.249 424.655 864.436 424.655 862.438C424.655 860.44 425.006 858.645 425.709 857.054C426.412 855.427 427.43 854.058 428.762 852.948C430.057 851.801 431.629 850.931 433.479 850.339C435.329 849.747 437.382 849.451 439.639 849.451C441.933 849.451 444.005 849.747 445.855 850.339C447.668 850.931 449.241 851.801 450.573 852.948C451.868 854.058 452.867 855.427 453.57 857.054C454.272 858.645 454.624 860.44 454.624 862.438ZM450.795 862.438C450.795 859.959 450.055 857.961 448.575 856.444C447.095 854.927 444.801 854.169 441.693 854.169H437.586C434.478 854.169 432.184 854.927 430.704 856.444C429.224 857.961 428.484 859.959 428.484 862.438C428.484 864.917 429.224 866.915 430.704 868.432C432.184 869.949 434.478 870.707 437.586 870.707H441.693C444.801 870.707 447.095 869.949 448.575 868.432C450.055 866.915 450.795 864.917 450.795 862.438ZM454.624 828.661C454.624 830.733 454.272 832.601 453.57 834.266C452.867 835.894 451.868 837.3 450.573 838.484C449.241 839.631 447.668 840.519 445.855 841.148C444.005 841.777 441.952 842.092 439.695 842.092C437.401 842.092 435.329 841.777 433.479 841.148C431.629 840.482 430.057 839.576 428.762 838.429C427.43 837.282 426.412 835.913 425.709 834.322C425.006 832.694 424.655 830.899 424.655 828.938C424.655 827.014 425.006 825.276 425.709 823.722C426.412 822.131 427.393 820.78 428.651 819.67C429.872 818.56 431.333 817.709 433.035 817.117C434.737 816.525 436.605 816.229 438.64 816.229H440.749L440.749 837.43H442.081C443.339 837.43 444.505 837.226 445.578 836.819C446.651 836.412 447.576 835.839 448.353 835.099C449.13 834.322 449.74 833.397 450.184 832.324C450.591 831.214 450.795 829.993 450.795 828.661C450.795 826.737 450.351 825.072 449.463 823.666C448.575 822.26 447.354 821.187 445.8 820.447L448.02 817.173C449.944 818.024 451.535 819.448 452.793 821.446C454.014 823.407 454.624 825.812 454.624 828.661ZM428.318 828.938C428.318 830.159 428.54 831.288 428.984 832.324C429.428 833.36 430.038 834.266 430.815 835.043C431.592 835.783 432.517 836.375 433.59 836.819C434.626 837.226 435.773 837.43 437.031 837.43H437.419L437.419 821.002H436.809C435.551 821.002 434.404 821.206 433.368 821.613C432.332 821.983 431.444 822.519 430.704 823.222C429.927 823.888 429.335 824.721 428.928 825.72C428.521 826.681 428.318 827.754 428.318 828.938Z" fill="black"/>
<path opacity="0.9" d="M159.955 1057.44C159.955 1060.14 159.511 1062.6 158.623 1064.82C157.735 1067.04 156.44 1068.95 154.738 1070.54C153.036 1072.13 150.946 1073.37 148.467 1074.26C145.951 1075.11 143.083 1075.53 139.865 1075.53C136.646 1075.53 133.797 1075.05 131.318 1074.09C128.802 1073.09 126.693 1071.76 124.991 1070.09C123.289 1068.43 121.994 1066.49 121.106 1064.27C120.218 1062.05 119.774 1059.68 119.774 1057.16C119.774 1055.57 119.885 1054.15 120.107 1052.89C120.329 1051.59 120.588 1050.48 120.884 1049.56C121.18 1048.6 121.476 1047.82 121.772 1047.23C122.068 1046.64 122.29 1046.23 122.438 1046.01L126.878 1047.56C126.656 1047.89 126.415 1048.38 126.156 1049C125.897 1049.63 125.638 1050.36 125.379 1051.17C125.12 1051.95 124.917 1052.82 124.769 1053.78C124.584 1054.7 124.491 1055.65 124.491 1056.61C124.491 1058.64 124.843 1060.47 125.546 1062.1C126.249 1063.73 127.266 1065.12 128.598 1066.26C129.93 1067.41 131.558 1068.3 133.482 1068.93C135.369 1069.52 137.497 1069.82 139.865 1069.82C142.159 1069.82 144.249 1069.56 146.136 1069.04C148.023 1068.48 149.651 1067.67 151.02 1066.6C152.352 1065.52 153.388 1064.19 154.128 1062.6C154.868 1060.97 155.238 1059.09 155.238 1056.94C155.238 1054.46 154.979 1052.41 154.461 1050.78C153.943 1049.15 153.48 1047.93 153.073 1047.12L157.513 1045.73C157.698 1045.99 157.939 1046.45 158.235 1047.12C158.494 1047.78 158.753 1048.62 159.012 1049.62C159.271 1050.61 159.493 1051.78 159.678 1053.11C159.863 1054.44 159.955 1055.89 159.955 1057.44ZM129.653 1029.24C129.653 1028.8 129.69 1028.3 129.764 1027.74C129.801 1027.15 129.875 1026.58 129.986 1026.02C130.06 1025.47 130.152 1024.97 130.263 1024.52C130.337 1024.04 130.411 1023.69 130.485 1023.47L134.981 1024.36C134.833 1024.76 134.666 1025.45 134.481 1026.41C134.259 1027.34 134.148 1028.54 134.148 1030.02C134.148 1030.98 134.259 1031.94 134.481 1032.9C134.666 1033.83 134.796 1034.44 134.87 1034.74H159.123V1039.9H131.484C131.04 1038.68 130.633 1037.16 130.263 1035.35C129.856 1033.53 129.653 1031.5 129.653 1029.24ZM144.748 1020.1C142.196 1020.1 139.976 1019.73 138.089 1018.99C136.165 1018.25 134.574 1017.27 133.316 1016.05C132.058 1014.83 131.114 1013.42 130.485 1011.83C129.856 1010.24 129.542 1008.61 129.542 1006.94C129.542 1003.06 130.763 1000.08 133.205 998.009C135.61 995.937 139.291 994.902 144.249 994.902C144.471 994.902 144.767 994.902 145.137 994.902C145.47 994.902 145.784 994.92 146.08 994.957V1014.71C149.077 1014.49 151.353 1013.62 152.907 1012.11C154.461 1010.59 155.238 1008.22 155.238 1005C155.238 1003.19 155.09 1001.67 154.794 1000.45C154.461 999.193 154.146 998.25 153.85 997.621L158.179 996.899C158.512 997.528 158.864 998.638 159.234 1000.23C159.604 1001.78 159.789 1003.56 159.789 1005.56C159.789 1008.07 159.419 1010.26 158.679 1012.11C157.902 1013.92 156.847 1015.42 155.515 1016.6C154.183 1017.79 152.611 1018.67 150.798 1019.27C148.948 1019.82 146.931 1020.1 144.748 1020.1ZM141.918 1000.28C139.587 1000.25 137.682 1000.84 136.202 1002.06C134.685 1003.24 133.926 1004.89 133.926 1007C133.926 1008.18 134.167 1009.24 134.648 1010.16C135.092 1011.05 135.684 1011.81 136.424 1012.44C137.164 1013.07 138.015 1013.57 138.977 1013.94C139.939 1014.27 140.919 1014.49 141.918 1014.6V1000.28ZM136.368 968.84C135.85 969.469 135.351 970.375 134.87 971.559C134.389 972.743 134.148 974.038 134.148 975.444C134.148 976.924 134.426 978.201 134.981 979.273C135.499 980.309 136.239 981.16 137.201 981.826C138.126 982.492 139.236 982.973 140.531 983.269C141.826 983.565 143.213 983.713 144.693 983.713C148.06 983.713 150.668 982.881 152.518 981.216C154.331 979.551 155.238 977.331 155.238 974.556C155.238 973.15 155.182 971.985 155.071 971.06C154.923 970.098 154.775 969.358 154.627 968.84H136.368ZM116.944 968.84L116.056 963.678H158.29C158.623 964.862 158.956 966.379 159.289 968.229C159.622 970.079 159.789 972.207 159.789 974.612C159.789 976.832 159.437 978.829 158.734 980.605C158.031 982.381 157.032 983.898 155.737 985.156C154.442 986.414 152.87 987.395 151.02 988.098C149.133 988.764 147.024 989.097 144.693 989.097C142.473 989.097 140.438 988.819 138.588 988.264C136.738 987.672 135.147 986.821 133.815 985.711C132.483 984.601 131.447 983.251 130.707 981.66C129.967 980.032 129.597 978.182 129.597 976.11C129.597 974.445 129.819 972.984 130.263 971.726C130.707 970.431 131.133 969.469 131.54 968.84H116.944ZM159.123 949.645V954.806H130.263V949.645H159.123ZM125.046 952.253C125.046 953.178 124.75 953.974 124.158 954.64C123.53 955.268 122.697 955.583 121.661 955.583C120.625 955.583 119.811 955.268 119.219 954.64C118.59 953.974 118.276 953.178 118.276 952.253C118.276 951.328 118.59 950.551 119.219 949.922C119.811 949.256 120.625 948.923 121.661 948.923C122.697 948.923 123.53 949.256 124.158 949.922C124.75 950.551 125.046 951.328 125.046 952.253ZM130.263 935.94V925.007H134.592V935.94H147.912C149.355 935.94 150.557 935.829 151.519 935.607C152.444 935.385 153.184 935.052 153.739 934.608C154.257 934.164 154.627 933.609 154.849 932.943C155.071 932.278 155.182 931.501 155.182 930.613C155.182 929.059 155.016 927.819 154.683 926.894C154.313 925.932 154.054 925.266 153.906 924.896L158.179 923.897C158.438 924.415 158.753 925.322 159.123 926.617C159.53 927.912 159.733 929.392 159.733 931.057C159.733 933.017 159.493 934.645 159.012 935.94C158.494 937.198 157.735 938.216 156.736 938.993C155.737 939.77 154.516 940.325 153.073 940.658C151.593 940.954 149.891 941.102 147.967 941.102H122.216L121.328 935.94H130.263Z" fill="black"/>
<path d="M170.035 111.668H235.987V136.057C235.987 143.949 234.141 149.996 230.449 154.196C226.757 158.43 221.862 160.547 215.765 160.547C209.769 160.547 204.925 158.43 201.233 154.196C197.575 149.996 195.745 143.949 195.745 136.057V123.659H170.035V111.668ZM170.035 147.337L200.928 129.858V142.662L170.035 162.986V147.337ZM203.774 123.659V134.837C203.774 139.241 204.773 142.577 206.771 144.847C208.804 147.116 211.429 148.251 214.647 148.251C217.933 148.251 220.575 147.218 222.573 145.152C224.606 143.086 225.622 140.054 225.622 136.057V123.659H203.774Z" fill="#1E7847"/>
<path d="M97.2068 174.221H163.159V198.61C163.159 206.502 161.313 212.549 157.62 216.749C153.928 220.983 149.033 223.1 142.936 223.1C136.941 223.1 132.097 220.983 128.404 216.749C124.746 212.549 122.917 206.502 122.917 198.61V186.212H97.2068V174.221ZM97.2068 209.89L128.1 192.411V205.215L97.2068 225.539V209.89ZM130.945 186.212V197.39C130.945 201.794 131.944 205.13 133.943 207.4C135.975 209.669 138.6 210.804 141.818 210.804C145.104 210.804 147.746 209.771 149.745 207.705C151.777 205.639 152.793 202.607 152.793 198.61V186.212H130.945Z" fill="black"/>
<defs>
<filter id="filter0_b_133_279" x="-277.493" y="-277.493" width="1196.69" height="1716.99" filterUnits="userSpaceOnUse" color-interpolation-filters="sRGB">
<feFlood flood-opacity="0" result="BackgroundImageFix"/>
<feGaussianBlur in="BackgroundImage" stdDeviation="138.746"/>
<feComposite in2="SourceAlpha" operator="in" result="effect1_backgroundBlur_133_279"/>
<feBlend mode="normal" in="SourceGraphic" in2="effect1_backgroundBlur_133_279" result="shape"/>
</filter>
</defs>
</svg>
