<svg width="642" height="1162" viewBox="0 0 642 1162" fill="none" xmlns="http://www.w3.org/2000/svg">
<rect y="1162" width="1162" height="641.701" rx="69.3731" transform="rotate(-90 0 1162)" fill="white"/>
<g filter="url(#filter0_b_133_279)">
<rect y="1162" width="1162" height="641.701" rx="69.3731" transform="rotate(-90 0 1162)" fill="white" fill-opacity="0.03"/>
</g>
<path d="M553.872 1062.1C553.872 1064.47 553.428 1066.51 552.54 1068.21C551.615 1069.91 550.301 1071.32 548.599 1072.43C546.897 1073.54 544.807 1074.35 542.328 1074.87C539.849 1075.39 537.019 1075.64 533.837 1075.64C530.692 1075.64 527.88 1075.39 525.401 1074.87C522.885 1074.35 520.776 1073.54 519.074 1072.43C517.372 1071.32 516.077 1069.91 515.189 1068.21C514.264 1066.51 513.802 1064.47 513.802 1062.1C513.802 1059.73 514.264 1057.7 515.189 1056C516.077 1054.3 517.372 1052.89 519.074 1051.78C520.776 1050.67 522.885 1049.86 525.401 1049.34C527.88 1048.82 530.692 1048.56 533.837 1048.56C537.019 1048.56 539.849 1048.82 542.328 1049.34C544.807 1049.86 546.897 1050.67 548.599 1051.78C550.301 1052.89 551.615 1054.3 552.54 1056C553.428 1057.7 553.872 1059.73 553.872 1062.1ZM549.82 1062.1C549.82 1060.55 549.524 1059.22 548.932 1058.11C548.303 1057 547.434 1056.11 546.324 1055.44C545.214 1054.74 543.882 1054.22 542.328 1053.89C540.737 1053.56 538.961 1053.39 537 1053.39H530.673C528.749 1053.39 526.992 1053.56 525.401 1053.89C523.81 1054.22 522.459 1054.74 521.349 1055.44C520.239 1056.11 519.388 1057 518.796 1058.11C518.168 1059.22 517.853 1060.55 517.853 1062.1C517.853 1063.66 518.168 1064.99 518.796 1066.1C519.388 1067.21 520.239 1068.11 521.349 1068.82C522.459 1069.48 523.81 1069.98 525.401 1070.32C526.992 1070.65 528.749 1070.82 530.673 1070.82H537C538.961 1070.82 540.737 1070.65 542.328 1070.32C543.882 1069.98 545.214 1069.48 546.324 1068.82C547.434 1068.11 548.303 1067.21 548.932 1066.1C549.524 1064.99 549.82 1063.66 549.82 1062.1ZM537.111 1062.1C537.111 1063.4 536.852 1064.3 536.334 1064.82C535.816 1065.3 535.187 1065.54 534.447 1065.54H533.226C532.486 1065.54 531.857 1065.3 531.339 1064.82C530.821 1064.3 530.562 1063.4 530.562 1062.1C530.562 1060.81 530.821 1059.92 531.339 1059.44C531.857 1058.92 532.486 1058.66 533.226 1058.66H534.447C535.187 1058.66 535.816 1058.92 536.334 1059.44C536.852 1059.92 537.111 1060.81 537.111 1062.1ZM553.872 1028.82C553.872 1031.19 553.428 1033.23 552.54 1034.93C551.615 1036.63 550.301 1038.04 548.599 1039.15C546.897 1040.26 544.807 1041.07 542.328 1041.59C539.849 1042.11 537.019 1042.37 533.837 1042.37C530.692 1042.37 527.88 1042.11 525.401 1041.59C522.885 1041.07 520.776 1040.26 519.074 1039.15C517.372 1038.04 516.077 1036.63 515.189 1034.93C514.264 1033.23 513.802 1031.19 513.802 1028.82C513.802 1026.46 514.264 1024.42 515.189 1022.72C516.077 1021.02 517.372 1019.61 519.074 1018.5C520.776 1017.39 522.885 1016.58 525.401 1016.06C527.88 1015.54 530.692 1015.28 533.837 1015.28C537.019 1015.28 539.849 1015.54 542.328 1016.06C544.807 1016.58 546.897 1017.39 548.599 1018.5C550.301 1019.61 551.615 1021.02 552.54 1022.72C553.428 1024.42 553.872 1026.46 553.872 1028.82ZM549.82 1028.82C549.82 1027.27 549.524 1025.94 548.932 1024.83C548.303 1023.72 547.434 1022.83 546.324 1022.17C545.214 1021.46 543.882 1020.94 542.328 1020.61C540.737 1020.28 538.961 1020.11 537 1020.11H530.673C528.749 1020.11 526.992 1020.28 525.401 1020.61C523.81 1020.94 522.459 1021.46 521.349 1022.17C520.239 1022.83 519.388 1023.72 518.796 1024.83C518.168 1025.94 517.853 1027.27 517.853 1028.82C517.853 1030.38 518.168 1031.71 518.796 1032.82C519.388 1033.93 520.239 1034.84 521.349 1035.54C522.459 1036.21 523.81 1036.71 525.401 1037.04C526.992 1037.37 528.749 1037.54 530.673 1037.54H537C538.961 1037.54 540.737 1037.37 542.328 1037.04C543.882 1036.71 545.214 1036.21 546.324 1035.54C547.434 1034.84 548.303 1033.93 548.932 1032.82C549.524 1031.71 549.82 1030.38 549.82 1028.82ZM537.111 1028.82C537.111 1030.12 536.852 1031.03 536.334 1031.54C535.816 1032.03 535.187 1032.27 534.447 1032.27H533.226C532.486 1032.27 531.857 1032.03 531.339 1031.54C530.821 1031.03 530.562 1030.12 530.562 1028.82C530.562 1027.53 530.821 1026.64 531.339 1026.16C531.857 1025.64 532.486 1025.38 533.226 1025.38H534.447C535.187 1025.38 535.816 1025.64 536.334 1026.16C536.852 1026.64 537.111 1027.53 537.111 1028.82ZM553.872 995.548C553.872 997.915 553.428 999.95 552.54 1001.65C551.615 1003.35 550.301 1004.76 548.599 1005.87C546.897 1006.98 544.807 1007.79 542.328 1008.31C539.849 1008.83 537.019 1009.09 533.837 1009.09C530.692 1009.09 527.88 1008.83 525.401 1008.31C522.885 1007.79 520.776 1006.98 519.074 1005.87C517.372 1004.76 516.077 1003.35 515.189 1001.65C514.264 999.95 513.802 997.915 513.802 995.548C513.802 993.18 514.264 991.145 515.189 989.443C516.077 987.741 517.372 986.335 519.074 985.225C520.776 984.115 522.885 983.301 525.401 982.783C527.88 982.265 530.692 982.006 533.837 982.006C537.019 982.006 539.849 982.265 542.328 982.783C544.807 983.301 546.897 984.115 548.599 985.225C550.301 986.335 551.615 987.741 552.54 989.443C553.428 991.145 553.872 993.18 553.872 995.548ZM549.82 995.548C549.82 993.994 549.524 992.662 548.932 991.552C548.303 990.442 547.434 989.554 546.324 988.888C545.214 988.185 543.882 987.667 542.328 987.334C540.737 987.001 538.961 986.834 537 986.834H530.673C528.749 986.834 526.992 987.001 525.401 987.334C523.81 987.667 522.459 988.185 521.349 988.888C520.239 989.554 519.388 990.442 518.796 991.552C518.168 992.662 517.853 993.994 517.853 995.548C517.853 997.102 518.168 998.433 518.796 999.543C519.388 1000.65 520.239 1001.56 521.349 1002.26C522.459 1002.93 523.81 1003.43 525.401 1003.76C526.992 1004.09 528.749 1004.26 530.673 1004.26H537C538.961 1004.26 540.737 1004.09 542.328 1003.76C543.882 1003.43 545.214 1002.93 546.324 1002.26C547.434 1001.56 548.303 1000.65 548.932 999.543C549.524 998.433 549.82 997.102 549.82 995.548ZM537.111 995.548C537.111 996.843 536.852 997.749 536.334 998.267C535.816 998.748 535.187 998.988 534.447 998.988H533.226C532.486 998.988 531.857 998.748 531.339 998.267C530.821 997.749 530.562 996.843 530.562 995.548C530.562 994.253 530.821 993.365 531.339 992.884C531.857 992.366 532.486 992.107 533.226 992.107H534.447C535.187 992.107 535.816 992.366 536.334 992.884C536.852 993.365 537.111 994.253 537.111 995.548ZM553.872 962.27C553.872 964.638 553.428 966.673 552.54 968.375C551.615 970.077 550.301 971.483 548.599 972.593C546.897 973.703 544.807 974.517 542.328 975.035C539.849 975.553 537.019 975.812 533.837 975.812C530.692 975.812 527.88 975.553 525.401 975.035C522.885 974.517 520.776 973.703 519.074 972.593C517.372 971.483 516.077 970.077 515.189 968.375C514.264 966.673 513.802 964.638 513.802 962.27C513.802 959.902 514.264 957.867 515.189 956.165C516.077 954.463 517.372 953.057 519.074 951.947C520.776 950.837 522.885 950.023 525.401 949.505C527.88 948.987 530.692 948.728 533.837 948.728C537.019 948.728 539.849 948.987 542.328 949.505C544.807 950.023 546.897 950.837 548.599 951.947C550.301 953.057 551.615 954.463 552.54 956.165C553.428 957.867 553.872 959.902 553.872 962.27ZM549.82 962.27C549.82 960.716 549.524 959.384 548.932 958.274C548.303 957.164 547.434 956.276 546.324 955.61C545.214 954.907 543.882 954.389 542.328 954.056C540.737 953.723 538.961 953.557 537 953.557H530.673C528.749 953.557 526.992 953.723 525.401 954.056C523.81 954.389 522.459 954.907 521.349 955.61C520.239 956.276 519.388 957.164 518.796 958.274C518.168 959.384 517.853 960.716 517.853 962.27C517.853 963.824 518.168 965.156 518.796 966.266C519.388 967.376 520.239 968.282 521.349 968.985C522.459 969.651 523.81 970.151 525.401 970.484C526.992 970.817 528.749 970.983 530.673 970.983H537C538.961 970.983 540.737 970.817 542.328 970.484C543.882 970.151 545.214 969.651 546.324 968.985C547.434 968.282 548.303 967.376 548.932 966.266C549.524 965.156 549.82 963.824 549.82 962.27ZM537.111 962.27C537.111 963.565 536.852 964.472 536.334 964.99C535.816 965.471 535.187 965.711 534.447 965.711H533.226C532.486 965.711 531.857 965.471 531.339 964.99C530.821 964.472 530.562 963.565 530.562 962.27C530.562 960.975 530.821 960.087 531.339 959.606C531.857 959.088 532.486 958.829 533.226 958.829H534.447C535.187 958.829 535.816 959.088 536.334 959.606C536.852 960.087 537.111 960.975 537.111 962.27ZM538.665 903.763H534.003L534.003 887.668H538.665L538.665 903.763ZM553.872 829.16C553.872 831.528 553.428 833.563 552.54 835.265C551.615 836.967 550.301 838.373 548.599 839.483C546.897 840.593 544.807 841.407 542.328 841.925C539.849 842.443 537.019 842.702 533.837 842.702C530.692 842.702 527.88 842.443 525.401 841.925C522.885 841.407 520.776 840.593 519.074 839.483C517.372 838.373 516.077 836.967 515.189 835.265C514.264 833.563 513.802 831.528 513.802 829.16C513.802 826.792 514.264 824.758 515.189 823.056C516.077 821.354 517.372 819.948 519.074 818.838C520.776 817.728 522.885 816.914 525.401 816.396C527.88 815.878 530.692 815.619 533.837 815.619C537.019 815.619 539.849 815.878 542.328 816.396C544.807 816.914 546.897 817.728 548.599 818.838C550.301 819.948 551.615 821.354 552.54 823.056C553.428 824.758 553.872 826.792 553.872 829.16ZM549.82 829.16C549.82 827.606 549.524 826.274 548.932 825.165C548.303 824.055 547.434 823.167 546.324 822.501C545.214 821.798 543.882 821.28 542.328 820.947C540.737 820.614 538.961 820.447 537 820.447H530.673C528.749 820.447 526.992 820.614 525.401 820.947C523.81 821.28 522.459 821.798 521.349 822.501C520.239 823.167 519.388 824.055 518.796 825.165C518.168 826.274 517.853 827.606 517.853 829.16C517.853 830.714 518.168 832.046 518.796 833.156C519.388 834.266 520.239 835.173 521.349 835.876C522.459 836.542 523.81 837.041 525.401 837.374C526.992 837.707 528.749 837.874 530.673 837.874H537C538.961 837.874 540.737 837.707 542.328 837.374C543.882 837.041 545.214 836.542 546.324 835.876C547.434 835.173 548.303 834.266 548.932 833.156C549.524 832.046 549.82 830.714 549.82 829.16ZM537.111 829.16C537.111 830.455 536.852 831.362 536.334 831.88C535.816 832.361 535.187 832.601 534.447 832.601H533.226C532.486 832.601 531.857 832.361 531.339 831.88C530.821 831.362 530.562 830.455 530.562 829.16C530.562 827.865 530.821 826.977 531.339 826.496C531.857 825.978 532.486 825.72 533.226 825.72H534.447C535.187 825.72 535.816 825.978 536.334 826.496C536.852 826.977 537.111 827.865 537.111 829.16ZM553.872 795.883C553.872 798.251 553.428 800.286 552.54 801.988C551.615 803.69 550.301 805.096 548.599 806.206C546.897 807.316 544.807 808.13 542.328 808.648C539.849 809.166 537.019 809.425 533.837 809.425C530.692 809.425 527.88 809.166 525.401 808.648C522.885 808.13 520.776 807.316 519.074 806.206C517.372 805.096 516.077 803.69 515.189 801.988C514.264 800.286 513.802 798.251 513.802 795.883C513.802 793.515 514.264 791.48 515.189 789.778C516.077 788.076 517.372 786.67 519.074 785.56C520.776 784.45 522.885 783.636 525.401 783.118C527.88 782.6 530.692 782.341 533.837 782.341C537.019 782.341 539.849 782.6 542.328 783.118C544.807 783.636 546.897 784.45 548.599 785.56C550.301 786.67 551.615 788.076 552.54 789.778C553.428 791.48 553.872 793.515 553.872 795.883ZM549.82 795.883C549.82 794.329 549.524 792.997 548.932 791.887C548.303 790.777 547.434 789.889 546.324 789.223C545.214 788.52 543.882 788.002 542.328 787.669C540.737 787.336 538.961 787.17 537 787.17H530.673C528.749 787.17 526.992 787.336 525.401 787.669C523.81 788.002 522.459 788.52 521.349 789.223C520.239 789.889 519.388 790.777 518.796 791.887C518.168 792.997 517.853 794.329 517.853 795.883C517.853 797.437 518.168 798.769 518.796 799.879C519.388 800.989 520.239 801.895 521.349 802.598C522.459 803.264 523.81 803.764 525.401 804.097C526.992 804.43 528.749 804.596 530.673 804.596H537C538.961 804.596 540.737 804.43 542.328 804.097C543.882 803.764 545.214 803.264 546.324 802.598C547.434 801.895 548.303 800.989 548.932 799.879C549.524 798.769 549.82 797.437 549.82 795.883ZM537.111 795.883C537.111 797.178 536.852 798.084 536.334 798.602C535.816 799.083 535.187 799.324 534.447 799.324H533.226C532.486 799.324 531.857 799.083 531.339 798.602C530.821 798.084 530.562 797.178 530.562 795.883C530.562 794.588 530.821 793.7 531.339 793.219C531.857 792.701 532.486 792.442 533.226 792.442H534.447C535.187 792.442 535.816 792.701 536.334 793.219C536.852 793.7 537.111 794.588 537.111 795.883ZM553.872 762.606C553.872 764.973 553.428 767.008 552.54 768.71C551.615 770.412 550.301 771.818 548.599 772.928C546.897 774.038 544.807 774.852 542.328 775.37C539.849 775.888 537.019 776.147 533.837 776.147C530.692 776.147 527.88 775.888 525.401 775.37C522.885 774.852 520.776 774.038 519.074 772.928C517.372 771.818 516.077 770.412 515.189 768.71C514.264 767.008 513.802 764.973 513.802 762.606C513.802 760.238 514.264 758.203 515.189 756.501C516.077 754.799 517.372 753.393 519.074 752.283C520.776 751.173 522.885 750.359 525.401 749.841C527.88 749.323 530.692 749.064 533.837 749.064C537.019 749.064 539.849 749.323 542.328 749.841C544.807 750.359 546.897 751.173 548.599 752.283C550.301 753.393 551.615 754.799 552.54 756.501C553.428 758.203 553.872 760.238 553.872 762.606ZM549.82 762.606C549.82 761.052 549.524 759.72 548.932 758.61C548.303 757.5 547.434 756.612 546.324 755.946C545.214 755.243 543.882 754.725 542.328 754.392C540.737 754.059 538.961 753.892 537 753.892H530.673C528.749 753.892 526.992 754.059 525.401 754.392C523.81 754.725 522.459 755.243 521.349 755.946C520.239 756.612 519.388 757.5 518.796 758.61C518.168 759.72 517.853 761.052 517.853 762.606C517.853 764.16 518.168 765.491 518.796 766.601C519.388 767.711 520.239 768.618 521.349 769.321C522.459 769.987 523.81 770.486 525.401 770.819C526.992 771.152 528.749 771.319 530.673 771.319H537C538.961 771.319 540.737 771.152 542.328 770.819C543.882 770.486 545.214 769.987 546.324 769.321C547.434 768.618 548.303 767.711 548.932 766.601C549.524 765.491 549.82 764.16 549.82 762.606ZM537.111 762.606C537.111 763.901 536.852 764.807 536.334 765.325C535.816 765.806 535.187 766.046 534.447 766.046H533.226C532.486 766.046 531.857 765.806 531.339 765.325C530.821 764.807 530.562 763.901 530.562 762.606C530.562 761.311 530.821 760.423 531.339 759.942C531.857 759.424 532.486 759.165 533.226 759.165H534.447C535.187 759.165 535.816 759.424 536.334 759.942C536.852 760.423 537.111 761.311 537.111 762.606ZM553.872 729.328C553.872 731.696 553.428 733.731 552.54 735.433C551.615 737.135 550.301 738.541 548.599 739.651C546.897 740.761 544.807 741.575 542.328 742.093C539.849 742.611 537.019 742.87 533.837 742.87C530.692 742.87 527.88 742.611 525.401 742.093C522.885 741.575 520.776 740.761 519.074 739.651C517.372 738.541 516.077 737.135 515.189 735.433C514.264 733.731 513.802 731.696 513.802 729.328C513.802 726.96 514.264 724.925 515.189 723.223C516.077 721.521 517.372 720.115 519.074 719.005C520.776 717.895 522.885 717.081 525.401 716.563C527.88 716.045 530.692 715.786 533.837 715.786C537.019 715.786 539.849 716.045 542.328 716.563C544.807 717.081 546.897 717.895 548.599 719.005C550.301 720.115 551.615 721.521 552.54 723.223C553.428 724.925 553.872 726.96 553.872 729.328ZM549.82 729.328C549.82 727.774 549.524 726.442 548.932 725.332C548.303 724.222 547.434 723.334 546.324 722.668C545.214 721.965 543.882 721.447 542.328 721.114C540.737 720.781 538.961 720.615 537 720.615H530.673C528.749 720.615 526.992 720.781 525.401 721.114C523.81 721.447 522.459 721.965 521.349 722.668C520.239 723.334 519.388 724.222 518.796 725.332C518.168 726.442 517.853 727.774 517.853 729.328C517.853 730.882 518.168 732.214 518.796 733.324C519.388 734.434 520.239 735.34 521.349 736.043C522.459 736.709 523.81 737.209 525.401 737.542C526.992 737.875 528.749 738.041 530.673 738.041H537C538.961 738.041 540.737 737.875 542.328 737.542C543.882 737.209 545.214 736.709 546.324 736.043C547.434 735.34 548.303 734.434 548.932 733.324C549.524 732.214 549.82 730.882 549.82 729.328ZM537.111 729.328C537.111 730.623 536.852 731.53 536.334 732.048C535.816 732.529 535.187 732.769 534.447 732.769H533.226C532.486 732.769 531.857 732.529 531.339 732.048C530.821 731.53 530.562 730.623 530.562 729.328C530.562 728.033 530.821 727.145 531.339 726.664C531.857 726.146 532.486 725.887 533.226 725.887H534.447C535.187 725.887 535.816 726.146 536.334 726.664C536.852 727.145 537.111 728.033 537.111 729.328ZM538.665 670.821H534.003V654.726H538.665V670.821ZM553.206 591.89H545.602V610.981H541.495L514.468 594.22V587.45H541.773V581.678H545.602V587.45H553.206V591.89ZM541.773 606.819V591.89H518.075V592.112L541.773 606.819ZM553.872 562.941C553.872 565.198 553.594 567.177 553.039 568.879C552.447 570.581 551.652 572.006 550.653 573.153C549.654 574.263 548.47 575.114 547.101 575.706C545.732 576.261 544.252 576.538 542.661 576.538C539.997 576.538 537.888 575.817 536.334 574.374C534.78 572.931 533.689 571.025 533.06 568.657H532.616C531.913 570.729 530.784 572.376 529.23 573.597C527.639 574.781 525.734 575.373 523.514 575.373C520.554 575.373 518.205 574.281 516.466 572.098C514.69 569.915 513.802 566.863 513.802 562.941C513.802 559.019 514.69 555.967 516.466 553.784C518.205 551.601 520.554 550.509 523.514 550.509C525.734 550.509 527.639 551.12 529.23 552.341C530.784 553.525 531.913 555.153 532.616 557.225H533.06C533.689 554.857 534.78 552.951 536.334 551.508C537.888 550.065 539.997 549.344 542.661 549.344C544.252 549.344 545.732 549.64 547.101 550.232C548.47 550.787 549.654 551.638 550.653 552.785C551.652 553.932 552.447 555.356 553.039 557.058C553.594 558.723 553.872 560.684 553.872 562.941ZM549.931 562.941C549.931 560.203 549.321 558.057 548.1 556.503C546.879 554.949 545.158 554.172 542.938 554.172H541.717C539.497 554.172 537.777 554.949 536.556 556.503C535.335 558.02 534.725 560.166 534.725 562.941C534.725 565.716 535.335 567.88 536.556 569.434C537.777 570.951 539.497 571.71 541.717 571.71H542.938C545.158 571.71 546.879 570.933 548.1 569.379C549.321 567.825 549.931 565.679 549.931 562.941ZM530.951 562.941C530.951 560.425 530.414 558.52 529.341 557.225C528.268 555.893 526.733 555.227 524.735 555.227H523.958C521.96 555.227 520.424 555.911 519.351 557.28C518.279 558.612 517.742 560.499 517.742 562.941C517.742 565.383 518.279 567.288 519.351 568.657C520.424 569.989 521.96 570.655 523.958 570.655H524.735C526.733 570.655 528.268 570.008 529.341 568.713C530.414 567.381 530.951 565.457 530.951 562.941ZM528.675 516.566C531.561 516.566 534.281 517.01 536.834 517.898C539.349 518.749 541.662 519.859 543.771 521.228C545.843 522.597 547.693 524.114 549.321 525.779C550.912 527.407 552.207 529.016 553.206 530.607V536.601C551.689 534.492 550.209 532.623 548.766 530.996C547.323 529.331 545.824 527.869 544.27 526.611C542.679 525.353 540.996 524.299 539.22 523.448C537.407 522.597 535.372 521.894 533.115 521.339L533.004 521.616C534.595 522.578 535.927 523.818 537 525.335C538.036 526.815 538.554 528.757 538.554 531.162C538.554 532.864 538.276 534.436 537.721 535.879C537.166 537.285 536.371 538.506 535.335 539.542C534.299 540.541 533.06 541.337 531.617 541.929C530.137 542.484 528.472 542.761 526.622 542.761C524.735 542.761 523.014 542.465 521.46 541.873C519.869 541.244 518.519 540.356 517.409 539.209C516.262 538.062 515.374 536.693 514.745 535.102C514.116 533.474 513.802 531.68 513.802 529.719C513.802 527.684 514.153 525.853 514.856 524.225C515.522 522.597 516.503 521.228 517.798 520.118C519.055 518.971 520.609 518.101 522.459 517.509C524.309 516.88 526.381 516.566 528.675 516.566ZM534.725 529.664C534.725 527 534.003 524.946 532.56 523.503C531.117 522.023 529.082 521.283 526.455 521.283H526.011C523.384 521.283 521.349 522.023 519.906 523.503C518.463 524.946 517.742 527 517.742 529.664C517.742 532.327 518.463 534.399 519.906 535.879C521.349 537.322 523.384 538.044 526.011 538.044H526.455C529.082 538.044 531.117 537.322 532.56 535.879C534.003 534.399 534.725 532.327 534.725 529.664ZM553.872 496.386C553.872 498.754 553.428 500.789 552.54 502.491C551.615 504.193 550.301 505.599 548.599 506.709C546.897 507.819 544.807 508.633 542.328 509.151C539.849 509.669 537.019 509.928 533.837 509.928C530.692 509.928 527.88 509.669 525.401 509.151C522.885 508.633 520.776 507.819 519.074 506.709C517.372 505.599 516.077 504.193 515.189 502.491C514.264 500.789 513.802 498.754 513.802 496.386C513.802 494.018 514.264 491.983 515.189 490.281C516.077 488.579 517.372 487.173 519.074 486.063C520.776 484.953 522.885 484.139 525.401 483.621C527.88 483.104 530.692 482.845 533.837 482.845C537.019 482.845 539.849 483.104 542.328 483.621C544.807 484.139 546.897 484.953 548.599 486.063C550.301 487.173 551.615 488.579 552.54 490.281C553.428 491.983 553.872 494.018 553.872 496.386ZM549.82 496.386C549.82 494.832 549.524 493.5 548.932 492.39C548.303 491.28 547.434 490.392 546.324 489.726C545.214 489.023 543.882 488.505 542.328 488.172C540.737 487.839 538.961 487.673 537 487.673H530.673C528.749 487.673 526.992 487.839 525.401 488.172C523.81 488.505 522.459 489.023 521.349 489.726C520.239 490.392 519.388 491.28 518.796 492.39C518.168 493.5 517.853 494.832 517.853 496.386C517.853 497.94 518.168 499.272 518.796 500.382C519.388 501.492 520.239 502.398 521.349 503.101C522.459 503.767 523.81 504.267 525.401 504.6C526.992 504.933 528.749 505.099 530.673 505.099H537C538.961 505.099 540.737 504.933 542.328 504.6C543.882 504.267 545.214 503.767 546.324 503.101C547.434 502.398 548.303 501.492 548.932 500.382C549.524 499.272 549.82 497.94 549.82 496.386ZM537.111 496.386C537.111 497.681 536.852 498.588 536.334 499.106C535.816 499.587 535.187 499.827 534.447 499.827H533.226C532.486 499.827 531.857 499.587 531.339 499.106C530.821 498.588 530.562 497.681 530.562 496.386C530.562 495.091 530.821 494.203 531.339 493.722C531.857 493.204 532.486 492.945 533.226 492.945H534.447C535.187 492.945 535.816 493.204 536.334 493.722C536.852 494.203 537.111 495.091 537.111 496.386ZM538.665 437.879H534.003V421.784H538.665V437.879ZM553.206 350.123V375.986H548.433L536.778 363.054C535.076 361.167 533.337 359.614 531.561 358.393C529.748 357.172 527.843 356.561 525.845 356.561H525.179C522.848 356.561 521.053 357.172 519.795 358.393C518.5 359.614 517.853 361.426 517.853 363.831C517.853 366.199 518.463 368.031 519.684 369.326C520.868 370.584 522.459 371.527 524.457 372.156L522.903 376.319C521.756 375.949 520.646 375.449 519.573 374.82C518.463 374.154 517.483 373.322 516.632 372.323C515.781 371.324 515.097 370.121 514.579 368.715C514.061 367.272 513.802 365.607 513.802 363.72C513.802 361.796 514.079 360.094 514.634 358.615C515.189 357.098 515.966 355.84 516.965 354.841C517.964 353.805 519.148 353.028 520.517 352.51C521.886 351.955 523.384 351.677 525.012 351.677C526.492 351.677 527.88 351.899 529.175 352.343C530.47 352.75 531.709 353.342 532.893 354.119C534.077 354.859 535.243 355.766 536.39 356.839C537.499 357.875 538.609 359.04 539.719 360.335L549.154 371.157V350.123H553.206ZM553.872 329.999C553.872 332.256 553.594 334.235 553.039 335.937C552.447 337.639 551.652 339.064 550.653 340.211C549.654 341.321 548.47 342.172 547.101 342.764C545.732 343.319 544.252 343.596 542.661 343.596C539.997 343.596 537.888 342.875 536.334 341.432C534.78 339.989 533.689 338.083 533.06 335.715H532.616C531.913 337.787 530.784 339.434 529.23 340.655C527.639 341.839 525.734 342.431 523.514 342.431C520.554 342.431 518.205 341.339 516.466 339.156C514.69 336.973 513.802 333.921 513.802 329.999C513.802 326.077 514.69 323.025 516.466 320.842C518.205 318.659 520.554 317.567 523.514 317.567C525.734 317.567 527.639 318.178 529.23 319.399C530.784 320.583 531.913 322.211 532.616 324.283H533.06C533.689 321.915 534.78 320.009 536.334 318.566C537.888 317.123 539.997 316.402 542.661 316.402C544.252 316.402 545.732 316.698 547.101 317.29C548.47 317.845 549.654 318.696 550.653 319.843C551.652 320.99 552.447 322.414 553.039 324.116C553.594 325.781 553.872 327.742 553.872 329.999ZM549.931 329.999C549.931 327.261 549.321 325.115 548.1 323.561C546.879 322.007 545.158 321.23 542.938 321.23H541.717C539.497 321.23 537.777 322.007 536.556 323.561C535.335 325.078 534.725 327.224 534.725 329.999C534.725 332.774 535.335 334.938 536.556 336.492C537.777 338.009 539.497 338.768 541.717 338.768H542.938C545.158 338.768 546.879 337.991 548.1 336.437C549.321 334.883 549.931 332.737 549.931 329.999ZM530.951 329.999C530.951 327.483 530.414 325.578 529.341 324.283C528.268 322.951 526.733 322.285 524.735 322.285H523.958C521.96 322.285 520.424 322.969 519.351 324.338C518.279 325.67 517.742 327.557 517.742 329.999C517.742 332.441 518.279 334.346 519.351 335.715C520.424 337.047 521.96 337.713 523.958 337.713H524.735C526.733 337.713 528.268 337.066 529.341 335.771C530.414 334.439 530.951 332.515 530.951 329.999ZM553.206 303.77L518.463 288.619V305.601H525.678V309.764H514.468V283.901H518.574L553.206 298.775V303.77ZM518.519 252.289V269.604L533.337 270.714V270.326C532.042 269.364 531.025 268.291 530.285 267.107C529.508 265.923 529.119 264.295 529.119 262.223C529.119 260.521 529.397 258.967 529.952 257.561C530.47 256.118 531.247 254.879 532.283 253.843C533.319 252.807 534.577 251.993 536.057 251.401C537.499 250.809 539.164 250.513 541.051 250.513C542.938 250.513 544.677 250.809 546.268 251.401C547.822 251.993 549.173 252.862 550.32 254.009C551.43 255.156 552.299 256.544 552.928 258.172C553.557 259.8 553.872 261.65 553.872 263.722C553.872 265.35 553.687 266.811 553.317 268.106C552.947 269.364 552.447 270.492 551.818 271.491C551.189 272.453 550.486 273.304 549.709 274.044C548.932 274.784 548.118 275.45 547.267 276.042L544.603 272.546C545.38 272.028 546.083 271.51 546.712 270.992C547.341 270.437 547.896 269.808 548.377 269.105C548.821 268.402 549.173 267.607 549.432 266.719C549.691 265.831 549.82 264.795 549.82 263.611C549.82 260.947 549.099 258.912 547.656 257.506C546.213 256.063 544.215 255.341 541.662 255.341H541.218C538.665 255.341 536.667 256.063 535.224 257.506C533.781 258.949 533.06 261.021 533.06 263.722C533.06 265.572 533.374 267.015 534.003 268.051C534.632 269.049 535.409 269.974 536.334 270.825L535.779 274.766L514.468 273.378V252.289H518.519Z" fill="black"/>
<path d="M425.22 1052.11H453.913C455.541 1052.11 457.021 1052.39 458.353 1052.95C459.685 1053.5 460.813 1054.3 461.738 1055.33C462.663 1056.33 463.385 1057.53 463.903 1058.94C464.383 1060.34 464.624 1061.88 464.624 1063.55C464.624 1066.51 463.866 1068.95 462.349 1070.87C460.795 1072.8 458.63 1074.05 455.855 1074.65L454.912 1070.21C455.689 1070.02 456.429 1069.78 457.132 1069.48C457.798 1069.15 458.39 1068.73 458.908 1068.21C459.389 1067.65 459.777 1066.99 460.073 1066.21C460.369 1065.43 460.517 1064.51 460.517 1063.43C460.517 1061.33 459.925 1059.7 458.741 1058.55C457.52 1057.37 455.633 1056.77 453.08 1056.77H429.271V1070.76H425.22V1052.11ZM464.624 1028.82C464.624 1030.82 464.272 1032.64 463.57 1034.26C462.867 1035.85 461.868 1037.22 460.573 1038.37C459.241 1039.48 457.668 1040.33 455.855 1040.92C454.005 1041.52 451.933 1041.81 449.639 1041.81C447.382 1041.81 445.329 1041.52 443.479 1040.92C441.629 1040.33 440.057 1039.48 438.762 1038.37C437.43 1037.22 436.412 1035.85 435.709 1034.26C435.006 1032.64 434.655 1030.82 434.655 1028.82C434.655 1026.83 435.006 1025.03 435.709 1023.44C436.412 1021.81 437.43 1020.44 438.762 1019.33C440.057 1018.19 441.629 1017.32 443.479 1016.73C445.329 1016.13 447.382 1015.84 449.639 1015.84C451.933 1015.84 454.005 1016.13 455.855 1016.73C457.668 1017.32 459.241 1018.19 460.573 1019.33C461.868 1020.44 462.867 1021.81 463.57 1023.44C464.272 1025.03 464.624 1026.83 464.624 1028.82ZM460.795 1028.82C460.795 1026.35 460.055 1024.35 458.575 1022.83C457.095 1021.31 454.801 1020.56 451.693 1020.56H447.586C444.478 1020.56 442.184 1021.31 440.704 1022.83C439.224 1024.35 438.484 1026.35 438.484 1028.82C438.484 1031.3 439.224 1033.3 440.704 1034.82C442.184 1036.34 444.478 1037.09 447.586 1037.09H451.693C454.801 1037.09 457.095 1036.34 458.575 1034.82C460.055 1033.3 460.795 1031.3 460.795 1028.82ZM422.889 1006.76V1002.32H439.983V1002.1C439.28 1001.8 438.614 1001.43 437.985 1000.99C437.319 1000.54 436.745 1000.01 436.264 999.377C435.783 998.711 435.395 997.934 435.099 997.046C434.803 996.158 434.655 995.122 434.655 993.938C434.655 990.941 435.617 988.536 437.541 986.723C439.428 984.91 442.11 984.004 445.588 984.004H463.958V988.444H446.365C443.738 988.444 441.796 989.017 440.538 990.164C439.243 991.311 438.595 992.995 438.595 995.215C438.595 996.103 438.706 996.972 438.928 997.823C439.15 998.674 439.483 999.432 439.927 1000.1C440.371 1000.76 440.945 1001.3 441.648 1001.71C442.351 1002.11 443.165 1002.32 444.09 1002.32H463.958V1006.76H422.889ZM463.958 973.481H435.321V969.041H439.983V968.819C439.28 968.523 438.614 968.153 437.985 967.709C437.319 967.265 436.745 966.728 436.264 966.1C435.783 965.434 435.395 964.657 435.099 963.769C434.803 962.881 434.655 961.845 434.655 960.661C434.655 957.664 435.617 955.259 437.541 953.446C439.428 951.633 442.11 950.726 445.588 950.726H463.958V955.166H446.365C443.738 955.166 441.796 955.74 440.538 956.887C439.243 958.034 438.595 959.717 438.595 961.937C438.595 962.825 438.706 963.695 438.928 964.546C439.15 965.397 439.483 966.155 439.927 966.821C440.371 967.487 440.945 968.023 441.648 968.43C442.351 968.837 443.165 969.041 444.09 969.041H463.958V973.481ZM425.22 907.092V896.27C425.22 891.534 426.848 888.001 430.104 885.67C433.36 883.339 438.188 882.174 444.589 882.174C450.99 882.174 455.818 883.339 459.074 885.67C462.33 888.001 463.958 891.534 463.958 896.27V907.092H425.22ZM459.907 896.492C459.907 893.384 458.834 891.053 456.688 889.499C454.542 887.908 451.508 887.113 447.586 887.113H441.592C437.67 887.113 434.636 887.908 432.49 889.499C430.344 891.053 429.271 893.384 429.271 896.492V902.431L459.907 902.431V896.492ZM464.624 862.438C464.624 864.436 464.272 866.249 463.57 867.877C462.867 869.468 461.868 870.837 460.573 871.984C459.241 873.094 457.668 873.945 455.855 874.537C454.005 875.128 451.933 875.424 449.639 875.424C447.382 875.424 445.329 875.128 443.479 874.537C441.629 873.945 440.057 873.094 438.762 871.984C437.43 870.837 436.412 869.468 435.709 867.877C435.006 866.249 434.655 864.436 434.655 862.438C434.655 860.44 435.006 858.645 435.709 857.054C436.412 855.427 437.43 854.058 438.762 852.948C440.057 851.801 441.629 850.931 443.479 850.339C445.329 849.747 447.382 849.451 449.639 849.451C451.933 849.451 454.005 849.747 455.855 850.339C457.668 850.931 459.241 851.801 460.573 852.948C461.868 854.058 462.867 855.427 463.57 857.054C464.272 858.645 464.624 860.44 464.624 862.438ZM460.795 862.438C460.795 859.959 460.055 857.961 458.575 856.444C457.095 854.927 454.801 854.169 451.693 854.169H447.586C444.478 854.169 442.184 854.927 440.704 856.444C439.224 857.961 438.484 859.959 438.484 862.438C438.484 864.917 439.224 866.915 440.704 868.432C442.184 869.949 444.478 870.707 447.586 870.707H451.693C454.801 870.707 457.095 869.949 458.575 868.432C460.055 866.915 460.795 864.917 460.795 862.438ZM464.624 828.661C464.624 830.733 464.272 832.601 463.57 834.266C462.867 835.894 461.868 837.3 460.573 838.484C459.241 839.631 457.668 840.519 455.855 841.148C454.005 841.777 451.952 842.092 449.695 842.092C447.401 842.092 445.329 841.777 443.479 841.148C441.629 840.482 440.057 839.576 438.762 838.429C437.43 837.282 436.412 835.913 435.709 834.322C435.006 832.694 434.655 830.899 434.655 828.938C434.655 827.014 435.006 825.276 435.709 823.722C436.412 822.131 437.393 820.78 438.651 819.67C439.872 818.56 441.333 817.709 443.035 817.117C444.737 816.525 446.605 816.229 448.64 816.229H450.749L450.749 837.43H452.081C453.339 837.43 454.505 837.226 455.578 836.819C456.651 836.412 457.576 835.839 458.353 835.099C459.13 834.322 459.74 833.397 460.184 832.324C460.591 831.214 460.795 829.993 460.795 828.661C460.795 826.737 460.351 825.072 459.463 823.666C458.575 822.26 457.354 821.187 455.8 820.447L458.02 817.173C459.944 818.024 461.535 819.448 462.793 821.446C464.014 823.407 464.624 825.812 464.624 828.661ZM438.318 828.938C438.318 830.159 438.54 831.288 438.984 832.324C439.428 833.36 440.038 834.266 440.815 835.043C441.592 835.783 442.517 836.375 443.59 836.819C444.626 837.226 445.773 837.43 447.031 837.43H447.419L447.419 821.002H446.809C445.551 821.002 444.404 821.206 443.368 821.613C442.332 821.983 441.444 822.519 440.704 823.222C439.927 823.888 439.335 824.721 438.928 825.72C438.521 826.681 438.318 827.754 438.318 828.938Z" fill="black"/>
<path opacity="0.9" d="M139.865 1042.4C143.194 1042.4 146.099 1042.92 148.578 1043.95C151.02 1044.99 153.055 1046.45 154.683 1048.34C156.274 1050.23 157.476 1052.48 158.29 1055.11C159.067 1057.74 159.456 1060.62 159.456 1063.77C159.456 1065.32 159.382 1067.04 159.234 1068.93C159.123 1070.78 158.882 1072.46 158.512 1073.98H121.217C120.847 1072.46 120.607 1070.78 120.496 1068.93C120.348 1067.04 120.274 1065.32 120.274 1063.77C120.274 1060.62 120.681 1057.74 121.495 1055.11C122.272 1052.48 123.474 1050.23 125.102 1048.34C126.693 1046.45 128.728 1044.99 131.207 1043.95C133.649 1042.92 136.535 1042.4 139.865 1042.4ZM154.738 1063.32C154.738 1058.22 153.443 1054.41 150.853 1051.89C148.226 1049.37 144.563 1048.12 139.865 1048.12C135.166 1048.12 131.521 1049.37 128.931 1051.89C126.304 1054.41 124.991 1058.22 124.991 1063.32C124.991 1064.84 125.009 1066.02 125.046 1066.88C125.083 1067.69 125.12 1068.26 125.157 1068.6H154.572C154.609 1068.26 154.646 1067.69 154.683 1066.88C154.72 1066.02 154.738 1064.84 154.738 1063.32ZM144.748 1036.36C142.196 1036.36 139.976 1035.99 138.089 1035.25C136.165 1034.51 134.574 1033.53 133.316 1032.31C132.058 1031.08 131.114 1029.68 130.485 1028.09C129.856 1026.5 129.542 1024.87 129.542 1023.2C129.542 1019.32 130.763 1016.34 133.205 1014.27C135.61 1012.2 139.291 1011.16 144.249 1011.16C144.471 1011.16 144.767 1011.16 145.137 1011.16C145.47 1011.16 145.784 1011.18 146.08 1011.22L146.08 1030.97C149.077 1030.75 151.353 1029.88 152.907 1028.37C154.461 1026.85 155.238 1024.48 155.238 1021.26C155.238 1019.45 155.09 1017.93 154.794 1016.71C154.461 1015.45 154.146 1014.51 153.85 1013.88L158.179 1013.16C158.512 1013.79 158.864 1014.9 159.234 1016.49C159.604 1018.04 159.789 1019.82 159.789 1021.82C159.789 1024.33 159.419 1026.52 158.679 1028.37C157.902 1030.18 156.847 1031.68 155.515 1032.86C154.183 1034.04 152.611 1034.93 150.798 1035.52C148.948 1036.08 146.931 1036.36 144.748 1036.36ZM141.918 1016.54C139.587 1016.51 137.682 1017.1 136.202 1018.32C134.685 1019.5 133.926 1021.15 133.926 1023.26C133.926 1024.44 134.167 1025.5 134.648 1026.42C135.092 1027.31 135.684 1028.07 136.424 1028.7C137.164 1029.33 138.015 1029.83 138.977 1030.2C139.939 1030.53 140.919 1030.75 141.918 1030.86L141.918 1016.54ZM131.54 998.585C131.133 997.956 130.707 997.013 130.263 995.755C129.819 994.46 129.597 992.98 129.597 991.315C129.597 989.243 129.967 987.412 130.707 985.821C131.447 984.193 132.483 982.824 133.815 981.714C135.147 980.604 136.738 979.771 138.588 979.216C140.438 978.624 142.473 978.328 144.693 978.328C147.024 978.328 149.133 978.68 151.02 979.383C152.87 980.049 154.442 981.011 155.737 982.269C157.032 983.527 158.031 985.044 158.734 986.82C159.437 988.595 159.789 990.593 159.789 992.813C159.789 995.218 159.622 997.346 159.289 999.196C158.956 1001.05 158.623 1002.56 158.29 1003.75H116.944L116.056 998.585H131.54ZM154.627 998.585C154.775 998.067 154.923 997.346 155.071 996.421C155.182 995.459 155.238 994.275 155.238 992.869C155.238 990.094 154.331 987.874 152.518 986.209C150.668 984.544 148.06 983.712 144.693 983.712C143.213 983.712 141.826 983.86 140.531 984.156C139.236 984.452 138.126 984.933 137.201 985.599C136.239 986.265 135.499 987.134 134.981 988.207C134.426 989.243 134.148 990.501 134.148 991.981C134.148 993.387 134.389 994.682 134.87 995.866C135.351 997.05 135.85 997.956 136.368 998.585H154.627ZM159.123 965.904V971.065H130.263V965.904H159.123ZM125.046 968.512C125.046 969.437 124.75 970.233 124.158 970.899C123.53 971.528 122.697 971.842 121.661 971.842C120.625 971.842 119.811 971.528 119.219 970.899C118.59 970.233 118.276 969.437 118.276 968.512C118.276 967.587 118.59 966.81 119.219 966.181C119.811 965.515 120.625 965.182 121.661 965.182C122.697 965.182 123.53 965.515 124.158 966.181C124.75 966.81 125.046 967.587 125.046 968.512ZM130.263 952.2V941.267H134.592V952.2H147.912C149.355 952.2 150.557 952.089 151.519 951.867C152.444 951.645 153.184 951.312 153.739 950.868C154.257 950.424 154.627 949.869 154.849 949.203C155.071 948.537 155.182 947.76 155.182 946.872C155.182 945.318 155.016 944.078 154.683 943.153C154.313 942.192 154.054 941.526 153.906 941.156L158.179 940.157C158.438 940.675 158.753 941.581 159.123 942.876C159.53 944.171 159.733 945.651 159.733 947.316C159.733 949.277 159.493 950.905 159.012 952.2C158.494 953.458 157.735 954.475 156.736 955.252C155.737 956.029 154.516 956.584 153.073 956.917C151.593 957.213 149.891 957.361 147.967 957.361H122.216L121.328 952.2H130.263Z" fill="black"/>
<path d="M170.035 111.668H235.987V136.057C235.987 143.949 234.141 149.996 230.449 154.196C226.757 158.43 221.862 160.547 215.765 160.547C209.769 160.547 204.925 158.43 201.233 154.196C197.575 149.996 195.745 143.949 195.745 136.057V123.659H170.035V111.668ZM170.035 147.337L200.928 129.858V142.662L170.035 162.986V147.337ZM203.774 123.659V134.837C203.774 139.241 204.773 142.577 206.771 144.847C208.804 147.116 211.429 148.251 214.647 148.251C217.933 148.251 220.575 147.218 222.573 145.152C224.606 143.086 225.622 140.054 225.622 136.057V123.659H203.774Z" fill="#1E7847"/>
<path d="M97.2068 174.221H163.159V198.61C163.159 206.502 161.313 212.549 157.62 216.749C153.928 220.983 149.033 223.1 142.936 223.1C136.941 223.1 132.097 220.983 128.404 216.749C124.746 212.549 122.917 206.502 122.917 198.61V186.212H97.2068V174.221ZM97.2068 209.89L128.1 192.411V205.215L97.2068 225.539V209.89ZM130.945 186.212V197.39C130.945 201.794 131.944 205.13 133.943 207.4C135.975 209.669 138.6 210.804 141.818 210.804C145.104 210.804 147.746 209.771 149.745 207.705C151.777 205.639 152.793 202.607 152.793 198.61V186.212H130.945Z" fill="black"/>
<rect x="277.357" y="1055.77" width="115.41" height="87.2852" rx="20.3611" transform="rotate(-90 277.357 1055.77)" fill="url(#paint0_linear_133_279)" stroke="#666666" stroke-width="2.71481"/>
<path fill-rule="evenodd" clip-rule="evenodd" d="M334.338 1018C345.515 1017.93 358.84 1007.41 363.147 1000.17C363.22 1000.03 363.322 999.908 363.445 999.81C363.569 999.712 363.711 999.641 363.864 999.602C364.017 999.563 364.176 999.556 364.331 999.583C364.487 999.609 364.635 999.668 364.766 999.755C364.943 999.861 365.09 1000.01 365.192 1000.19C365.295 1000.37 365.349 1000.57 365.351 1000.78C365.352 1000.99 365.293 1001.2 365.182 1001.37C360.628 1009.1 347.315 1019.67 335.395 1020.34V1055.94C335.366 1056.24 335.229 1056.51 335.01 1056.71C334.791 1056.91 334.505 1057.02 334.209 1057.02C333.913 1057.02 333.627 1056.91 333.408 1056.71C333.189 1056.51 333.051 1056.24 333.023 1055.94V1020.12C325.158 1017.88 316.823 1017.88 308.959 1020.12V1055.94C308.959 1056.26 308.835 1056.56 308.613 1056.78C308.392 1057 308.092 1057.12 307.778 1057.12C307.465 1057.12 307.165 1057 306.944 1056.78C306.722 1056.56 306.598 1056.26 306.598 1055.94V1020.34C294.633 1019.67 281.365 1009.05 276.811 1001.37C276.651 1001.1 276.608 1000.77 276.69 1000.46C276.772 1000.15 276.973 999.892 277.249 999.732C277.525 999.573 277.853 999.529 278.161 999.612C278.469 999.694 278.731 999.895 278.891 1000.17C283.141 1007.41 296.478 1017.93 307.666 1018C316.37 1015.43 325.634 1015.43 334.338 1018ZM295.758 981.46C287.695 985.497 281.365 991.839 278.891 996.01C278.731 996.286 278.469 996.487 278.161 996.57C277.853 996.652 277.525 996.608 277.249 996.449C276.973 996.289 276.772 996.027 276.69 995.719C276.608 995.411 276.651 995.083 276.811 994.807C280.015 989.342 287.369 982.989 294.633 979.346C294.773 979.258 294.929 979.202 295.092 979.181C295.255 979.161 295.421 979.176 295.578 979.227C295.734 979.277 295.878 979.361 295.998 979.473C296.119 979.585 296.213 979.722 296.275 979.874C296.363 980.037 296.409 980.218 296.41 980.403C296.41 980.622 296.349 980.837 296.234 981.024C296.119 981.211 295.954 981.362 295.758 981.46ZM333.023 940.181V976.074C325.158 978.317 316.823 978.317 308.959 976.074V940.181C308.959 939.868 308.835 939.567 308.613 939.346C308.392 939.124 308.092 939 307.778 939C307.465 939 307.165 939.124 306.943 939.346C306.722 939.567 306.598 939.868 306.598 940.181V976.984C306.601 977.24 306.687 977.488 306.843 977.691C306.999 977.894 307.217 978.041 307.464 978.109C316.231 980.723 325.571 980.723 334.338 978.109C345.515 978.188 358.84 988.701 363.147 995.943C363.216 996.086 363.314 996.214 363.436 996.316C363.558 996.419 363.7 996.494 363.853 996.538C364.006 996.581 364.166 996.592 364.324 996.569C364.481 996.546 364.632 996.49 364.766 996.404C364.943 996.298 365.09 996.148 365.192 995.969C365.295 995.79 365.349 995.587 365.351 995.381C365.352 995.17 365.293 994.964 365.182 994.785C360.684 987.105 347.315 976.49 335.395 975.815V940.181C335.366 939.886 335.229 939.613 335.01 939.414C334.791 939.215 334.505 939.104 334.209 939.104C333.913 939.104 333.627 939.215 333.408 939.414C333.189 939.613 333.051 939.886 333.023 940.181ZM283.25 999.265C283.018 998.918 282.894 998.509 282.894 998.091C282.894 997.53 283.117 996.992 283.513 996.596C283.91 996.199 284.447 995.977 285.008 995.977C285.426 995.977 285.835 996.101 286.183 996.333C286.53 996.565 286.801 996.895 286.961 997.282C287.121 997.668 287.163 998.093 287.081 998.503C287 998.913 286.799 999.29 286.503 999.586C286.207 999.881 285.831 1000.08 285.42 1000.16C285.01 1000.25 284.585 1000.2 284.199 1000.04C283.813 999.884 283.483 999.613 283.25 999.265Z" fill="#666666"/>
<defs>
<filter id="filter0_b_133_279" x="-277.493" y="-277.493" width="1196.69" height="1716.99" filterUnits="userSpaceOnUse" color-interpolation-filters="sRGB">
<feFlood flood-opacity="0" result="BackgroundImageFix"/>
<feGaussianBlur in="BackgroundImage" stdDeviation="138.746"/>
<feComposite in2="SourceAlpha" operator="in" result="effect1_backgroundBlur_133_279"/>
<feBlend mode="normal" in="SourceGraphic" in2="effect1_backgroundBlur_133_279" result="shape"/>
</filter>
<linearGradient id="paint0_linear_133_279" x1="264.75" y1="1057.12" x2="403.687" y2="1147.13" gradientUnits="userSpaceOnUse">
<stop stop-color="#FBC926"/>
<stop offset="0.212761" stop-color="#FFFBCC"/>
<stop offset="0.548384" stop-color="#C3922E" stop-opacity="0.8"/>
<stop offset="0.914316" stop-color="#EED688"/>
<stop offset="1" stop-color="#FFFBCC"/>
</linearGradient>
</defs>
</svg>
