<svg width="87" height="73" viewBox="0 0 87 73" fill="none" xmlns="http://www.w3.org/2000/svg">
<g clip-path="url(#clip0_202_317)">
<path d="M54.9998 64C66.0455 64 74.9998 55.0457 74.9998 44C74.9998 32.9543 66.0455 24 54.9998 24C43.9541 24 34.9998 32.9543 34.9998 44C34.9998 55.0457 43.9541 64 54.9998 64Z" fill="#F0F0F0"/>
<path d="M75 44C75 55.0456 66.0456 64 55 64C43.9543 64 35 55.0456 35 44" fill="#D80027"/>
<circle cx="55" cy="44" r="19" stroke="black" stroke-width="2"/>
</g>
<g clip-path="url(#clip1_202_317)">
<path d="M28.0003 50C39.046 50 48.0003 41.0457 48.0003 30C48.0003 18.9543 39.046 10 28.0003 10C16.9546 10 8.00027 18.9543 8.00027 30C8.00027 41.0457 16.9546 50 28.0003 50Z" fill="#F0F0F0"/>
<path d="M12.1344 17.8237C10.5634 19.8677 9.37876 22.2236 8.689 24.7829H19.0935L12.1344 17.8237Z" fill="#0052B4"/>
<path d="M47.3111 24.783C46.6213 22.2238 45.4366 19.868 43.8657 17.824L36.9067 24.783H47.3111Z" fill="#0052B4"/>
<path d="M8.689 35.2178C9.37884 37.777 10.5634 40.1329 12.1344 42.1768L19.0933 35.2178H8.689Z" fill="#0052B4"/>
<path d="M40.1764 14.1347C38.1324 12.5637 35.7766 11.3791 33.2173 10.6892V21.0937L40.1764 14.1347Z" fill="#0052B4"/>
<path d="M15.8236 45.8659C17.8676 47.4369 20.2235 48.6215 22.7827 49.3114V38.907L15.8236 45.8659Z" fill="#0052B4"/>
<path d="M22.7826 10.6892C20.2234 11.3791 17.8675 12.5637 15.8236 14.1346L22.7826 21.0936V10.6892Z" fill="#0052B4"/>
<path d="M33.2173 49.3114C35.7765 48.6215 38.1324 47.4369 40.1763 45.866L33.2173 38.907V49.3114Z" fill="#0052B4"/>
<path d="M36.9067 35.2178L43.8657 42.1768C45.4366 40.1329 46.6213 37.777 47.3111 35.2178H36.9067Z" fill="#0052B4"/>
<path d="M47.831 27.3913H30.6091H30.609V10.1693C29.755 10.0581 28.8844 10 28.0003 10C27.116 10 26.2455 10.0581 25.3916 10.1693V27.3912V27.3913H8.16957C8.0584 28.2452 8.00027 29.1159 8.00027 30C8.00027 30.8843 8.0584 31.7548 8.16957 32.6087H25.3914H25.3915V49.8307C26.2455 49.9419 27.116 50 28.0003 50C28.8844 50 29.755 49.942 30.6089 49.8307V32.6088V32.6087H47.831C47.9422 31.7548 48.0003 30.8843 48.0003 30C48.0003 29.1159 47.9422 28.2452 47.831 27.3913Z" fill="#D80027"/>
<path d="M33.2174 35.2176L42.1421 44.1423C42.5526 43.732 42.9441 43.303 43.3177 42.8583L35.6769 35.2175H33.2174V35.2176Z" fill="#D80027"/>
<path d="M22.7827 35.2175H22.7825L13.8579 44.1421C14.2682 44.5526 14.6972 44.9442 15.1419 45.3178L22.7827 37.6768V35.2175Z" fill="#D80027"/>
<path d="M22.7827 24.7828V24.7827L13.858 15.8579C13.4475 16.2682 13.0559 16.6972 12.6823 17.1419L20.3232 24.7828H22.7827V24.7828Z" fill="#D80027"/>
<path d="M33.2174 24.7828L42.1422 15.8579C41.7319 15.4475 41.3029 15.0559 40.8582 14.6824L33.2174 22.3232V24.7828Z" fill="#D80027"/>
</g>
<circle cx="28" cy="30" r="19" stroke="black" stroke-width="2"/>
<defs>
<clipPath id="clip0_202_317">
<rect width="40" height="40" fill="white" transform="translate(35 24)"/>
</clipPath>
<clipPath id="clip1_202_317">
<rect width="40" height="40" fill="white" transform="translate(8 10)"/>
</clipPath>
</defs>
</svg>
