<svg width="87" height="73" viewBox="0 0 87 73" fill="none" xmlns="http://www.w3.org/2000/svg">
<g clip-path="url(#clip0_202_459)">
<path d="M54.9998 64C66.0454 64 74.9998 55.0457 74.9998 44C74.9998 32.9543 66.0454 24 54.9998 24C43.9541 24 34.9998 32.9543 34.9998 44C34.9998 55.0457 43.9541 64 54.9998 64Z" fill="#F0F0F0"/>
<path d="M75 44C75 55.0456 66.0456 64 55 64C43.9544 64 35 55.0456 35 44" fill="#D80027"/>
<circle cx="55" cy="44" r="19" stroke="black" stroke-width="2"/>
</g>
<g clip-path="url(#clip1_202_459)">
<path d="M27.9998 50C39.0455 50 47.9998 41.0457 47.9998 30C47.9998 18.9543 39.0455 10 27.9998 10C16.9541 10 7.99982 18.9543 7.99982 30C7.99982 41.0457 16.9541 50 27.9998 50Z" fill="#F0F0F0"/>
<path d="M27.1305 30.0001H48C48 28.195 47.7594 26.4462 47.311 24.7827H27.1305V30.0001Z" fill="#D80027"/>
<path d="M27.1305 19.5653H45.0646C43.8403 17.5675 42.2749 15.8017 40.4497 14.3479H27.1305V19.5653Z" fill="#D80027"/>
<path d="M27.9999 50.0002C32.7069 50.0002 37.0332 48.3733 40.4496 45.6523H15.5502C18.9666 48.3733 23.293 50.0002 27.9999 50.0002Z" fill="#D80027"/>
<path d="M10.9354 40.435H45.0645C46.0474 38.8311 46.8097 37.078 47.311 35.2175H8.68896C9.19029 37.078 9.95256 38.8311 10.9354 40.435Z" fill="#D80027"/>
<path d="M17.2642 13.1233H19.0868L17.3915 14.3549L18.039 16.3478L16.3438 15.1162L14.6486 16.3478L15.2079 14.6262C13.7153 15.8695 12.407 17.3263 11.3289 18.9494H11.9129L10.8337 19.7334C10.6656 20.0138 10.5043 20.2987 10.3498 20.5879L10.8651 22.1739L9.90372 21.4754C9.66474 21.9817 9.44615 22.4995 9.24966 23.028L9.81739 24.7755H11.9129L10.2176 26.0071L10.8651 28L9.1699 26.7684L8.15443 27.5062C8.05279 28.3232 7.99982 29.1554 7.99982 30H27.9998C27.9998 18.9544 27.9998 17.6522 27.9998 10C24.0489 10 20.3658 11.1461 17.2642 13.1233ZM18.039 28L16.3438 26.7684L14.6486 28L15.2961 26.0071L13.6008 24.7755H15.6963L16.3438 22.7826L16.9913 24.7755H19.0868L17.3915 26.0071L18.039 28ZM17.3915 20.181L18.039 22.1739L16.3438 20.9423L14.6486 22.1739L15.2961 20.181L13.6008 18.9494H15.6963L16.3438 16.9565L16.9913 18.9494H19.0868L17.3915 20.181ZM25.2129 28L23.5177 26.7684L21.8225 28L22.4701 26.0071L20.7747 24.7755H22.8702L23.5177 22.7826L24.1652 24.7755H26.2607L24.5654 26.0071L25.2129 28ZM24.5654 20.181L25.2129 22.1739L23.5177 20.9423L21.8225 22.1739L22.4701 20.181L20.7747 18.9494H22.8702L23.5177 16.9565L24.1652 18.9494H26.2607L24.5654 20.181ZM24.5654 14.3549L25.2129 16.3478L23.5177 15.1162L21.8225 16.3478L22.4701 14.3549L20.7747 13.1233H22.8702L23.5177 11.1304L24.1652 13.1233H26.2607L24.5654 14.3549Z" fill="#0052B4"/>
</g>
<circle cx="28" cy="30" r="19" stroke="black" stroke-width="2"/>
<defs>
<clipPath id="clip0_202_459">
<rect width="40" height="40" fill="white" transform="translate(35 24)"/>
</clipPath>
<clipPath id="clip1_202_459">
<rect width="40" height="40" fill="white" transform="translate(8 10)"/>
</clipPath>
</defs>
</svg>
