<svg width="470" height="100" viewBox="0 0 470 100" fill="none" xmlns="http://www.w3.org/2000/svg">
<g clip-path="url(#clip0_124_278)">
<path d="M102.28 33.04H111.72V72H102.28V33.04ZM75.64 33.04H85.08V56.88C85.08 59.4133 85.7067 61.32 86.96 62.6C88.2133 63.8533 89.9333 64.48 92.12 64.48C93.9867 64.48 95.68 64 97.2 63.04C98.7467 62.0533 99.9733 60.6133 100.88 58.72C101.813 56.8 102.28 54.4267 102.28 51.6H104.84C104.84 56.3467 104.227 60.28 103 63.4C101.773 66.52 100.08 68.8533 97.92 70.4C95.76 71.9467 93.2667 72.72 90.44 72.72C87.6667 72.72 85.16 72.2267 82.92 71.24C80.68 70.2533 78.9067 68.6667 77.6 66.48C76.2933 64.2933 75.64 61.4133 75.64 57.84V33.04ZM222.014 73.12C218.707 73.12 215.68 72.2667 212.934 70.56C210.187 68.8533 207.987 66.4667 206.334 63.4C204.68 60.3067 203.854 56.6933 203.854 52.56C203.854 48.2933 204.667 44.6267 206.294 41.56C207.947 38.4933 210.147 36.1467 212.894 34.52C215.64 32.8933 218.68 32.08 222.014 32.08C225.107 32.08 227.774 32.7067 230.014 33.96C232.28 35.1867 234.094 36.8667 235.454 39C236.84 41.1067 237.774 43.4933 238.254 46.16C238.734 48.8267 238.76 51.5733 238.334 54.4H211.374V49.28H231.654L229.814 50.48C229.894 49.2267 229.827 47.96 229.614 46.68C229.427 45.4 229.054 44.2267 228.494 43.16C227.934 42.0933 227.134 41.24 226.094 40.6C225.08 39.9333 223.774 39.6 222.174 39.6C220.254 39.6 218.627 40.08 217.294 41.04C215.96 42 214.947 43.3067 214.254 44.96C213.56 46.6133 213.214 48.48 213.214 50.56V54.32C213.214 56.5067 213.534 58.44 214.174 60.12C214.84 61.8 215.814 63.12 217.094 64.08C218.4 65.04 220.04 65.52 222.014 65.52C223.854 65.52 225.4 65.0933 226.654 64.24C227.907 63.3867 228.707 62.1067 229.054 60.4H238.574C238.174 62.9067 237.227 65.12 235.734 67.04C234.267 68.9333 232.36 70.4267 230.014 71.52C227.667 72.5867 225 73.12 222.014 73.12ZM276.596 72V49.28C276.596 46.4 275.902 44.2267 274.516 42.76C273.129 41.2933 271.316 40.56 269.076 40.56C267.182 40.56 265.502 41.08 264.036 42.12C262.596 43.16 261.462 44.7333 260.636 46.84C259.809 48.92 259.396 51.52 259.396 54.64H256.276C256.276 49.6 256.902 45.4133 258.156 42.08C259.409 38.72 261.182 36.2133 263.476 34.56C265.769 32.9067 268.462 32.08 271.556 32.08C274.756 32.08 277.422 32.8 279.556 34.24C281.716 35.6533 283.329 37.6533 284.396 40.24C285.489 42.8267 286.036 45.84 286.036 49.28V72H276.596ZM249.956 72V33.2H258.196L259.396 40.88V72H249.956ZM314.519 73.12C311.266 73.12 308.239 72.28 305.439 70.6C302.666 68.8933 300.413 66.5067 298.679 63.44C296.973 60.3467 296.119 56.72 296.119 52.56C296.119 48.16 296.973 44.44 298.679 41.4C300.413 38.3333 302.666 36.0133 305.439 34.44C308.239 32.8667 311.266 32.08 314.519 32.08C317.053 32.08 319.279 32.4933 321.199 33.32C323.146 34.12 324.799 35.2133 326.159 36.6C327.519 37.96 328.586 39.48 329.359 41.16C330.133 42.84 330.626 44.5333 330.839 46.24L321.319 46.48C320.893 44.7733 320.093 43.36 318.919 42.24C317.773 41.12 316.279 40.56 314.439 40.56C312.919 40.56 311.493 40.9867 310.159 41.84C308.826 42.6667 307.733 43.96 306.879 45.72C306.053 47.48 305.639 49.76 305.639 52.56C305.639 55.2267 306.026 57.4533 306.799 59.24C307.599 61 308.666 62.3333 309.999 63.24C311.333 64.12 312.813 64.56 314.439 64.56C316.839 64.56 318.586 63.9867 319.679 62.84C320.773 61.6667 321.319 60.1067 321.319 58.16H330.839C330.839 60.9067 330.213 63.4133 328.959 65.68C327.706 67.9467 325.866 69.76 323.439 71.12C321.013 72.4533 318.039 73.12 314.519 73.12ZM336.223 33.2H346.943L357.263 63.76H355.583L364.463 33.2H374.063L359.183 79.04C357.663 83.6267 355.783 86.9467 353.543 89C351.33 91.0533 348.623 92.08 345.423 92.08C343.583 92.08 341.783 91.8667 340.023 91.44C338.29 91.04 336.516 90.4 334.703 89.52V81.2C336.17 82.1067 337.583 82.7733 338.943 83.2C340.33 83.6267 341.716 83.84 343.103 83.84C344.356 83.84 345.45 83.4933 346.383 82.8C347.343 82.1333 348.17 81.1867 348.863 79.96C349.556 78.76 350.143 77.36 350.623 75.76L351.823 72L336.223 33.2Z" fill="black"/>
<path d="M193.42 34L193.42 72.94H179.02C174.36 72.94 170.79 71.85 168.31 69.67C165.81 67.49 164.56 64.6 164.56 61C164.56 57.46 165.81 54.6 168.31 52.42C170.79 50.26 174.36 49.18 179.02 49.18H186.34L186.34 34L193.42 34ZM172.36 34L182.68 52.24H175.12L163.12 34H172.36ZM186.34 53.92H179.74C177.14 53.92 175.17 54.51 173.83 55.69C172.49 56.89 171.82 58.44 171.82 60.34C171.82 62.28 172.43 63.84 173.65 65.02C174.87 66.22 176.66 66.82 179.02 66.82H186.34V53.92ZM152.707 34V72.94H138.307C133.647 72.94 130.077 71.85 127.597 69.67C125.097 67.49 123.847 64.6 123.847 61C123.847 57.46 125.097 54.6 127.597 52.42C130.077 50.26 133.647 49.18 138.307 49.18H145.627V34H152.707ZM131.647 34L141.967 52.24L134.407 52.24L122.407 34H131.647ZM145.627 53.92H139.027C136.427 53.92 134.457 54.51 133.117 55.69C131.777 56.89 131.107 58.44 131.107 60.34C131.107 62.28 131.717 63.84 132.937 65.02C134.157 66.22 135.947 66.82 138.307 66.82H145.627V53.92Z" fill="black"/>
<path d="M383.825 42.025C383.208 42.025 382.708 41.8333 382.325 41.45C381.942 41.0667 381.75 40.5833 381.75 40C381.75 39.4333 381.942 38.9833 382.325 38.65C382.708 38.3 383.208 38.125 383.825 38.125C384.475 38.125 384.983 38.3 385.35 38.65C385.717 38.9833 385.9 39.4333 385.9 40C385.9 40.5833 385.717 41.0667 385.35 41.45C384.983 41.8333 384.475 42.025 383.825 42.025ZM382.375 72V48.25H385.275V72H382.375ZM413.585 72V58.025C413.585 55.5083 412.977 53.5833 411.76 52.25C410.56 50.9167 408.902 50.25 406.785 50.25C405.235 50.25 403.893 50.675 402.76 51.525C401.643 52.375 400.785 53.5667 400.185 55.1C399.602 56.6333 399.31 58.425 399.31 60.475H398.035C398.035 57.875 398.385 55.625 399.085 53.725C399.802 51.8083 400.852 50.3333 402.235 49.3C403.635 48.25 405.368 47.725 407.435 47.725C409.268 47.725 410.852 48.1333 412.185 48.95C413.535 49.7667 414.577 50.95 415.31 52.5C416.043 54.0333 416.41 55.875 416.41 58.025V72H413.585ZM396.41 72V48.275H398.86L399.31 54.125V72H396.41ZM434.098 84.175C431.814 84.175 429.814 83.8417 428.098 83.175C426.381 82.525 425.039 81.6417 424.073 80.525C423.123 79.4083 422.648 78.1667 422.648 76.8C422.648 74.8833 423.348 73.425 424.748 72.425C426.164 71.4417 428.014 70.95 430.298 70.95L431.373 72.175C429.489 72.175 428.031 72.5833 426.998 73.4C425.964 74.2167 425.448 75.325 425.448 76.725C425.448 78.1083 426.164 79.3 427.598 80.3C429.048 81.3 431.214 81.8 434.098 81.8C436.264 81.8 438.164 81.4917 439.798 80.875C441.448 80.275 442.731 79.475 443.648 78.475C444.581 77.4917 445.048 76.425 445.048 75.275C445.048 74.4417 444.731 73.7167 444.098 73.1C443.481 72.4833 442.531 72.175 441.248 72.175H431.373C429.756 72.175 428.406 71.9417 427.323 71.475C426.239 71.0083 425.414 70.3917 424.848 69.625C424.298 68.8583 424.023 68.0417 424.023 67.175C424.023 66.175 424.298 65.3417 424.848 64.675C425.414 63.9917 426.139 63.475 427.023 63.125C427.906 62.775 428.831 62.6 429.798 62.6L430.173 63.8C429.656 63.8 429.131 63.925 428.598 64.175C428.064 64.4083 427.606 64.7667 427.223 65.25C426.856 65.7167 426.673 66.3167 426.673 67.05C426.673 67.8667 427.006 68.5583 427.673 69.125C428.339 69.6917 429.573 69.975 431.373 69.975H441.248C443.348 69.975 444.989 70.45 446.173 71.4C447.373 72.35 447.973 73.6083 447.973 75.175C447.973 76.6417 447.423 78.0667 446.323 79.45C445.223 80.8333 443.639 81.9667 441.573 82.85C439.506 83.7333 437.014 84.175 434.098 84.175ZM434.998 65.25C433.198 65.25 431.589 64.8833 430.173 64.15C428.773 63.4 427.664 62.3667 426.848 61.05C426.031 59.7167 425.623 58.1917 425.623 56.475C425.623 54.7417 426.031 53.2167 426.848 51.9C427.664 50.5833 428.773 49.5583 430.173 48.825C431.589 48.0917 433.198 47.725 434.998 47.725C436.748 47.725 438.314 48.0917 439.698 48.825C441.098 49.5583 442.206 50.5833 443.023 51.9C443.839 53.2167 444.248 54.7417 444.248 56.475C444.248 58.1917 443.839 59.7167 443.023 61.05C442.206 62.3667 441.098 63.4 439.698 64.15C438.314 64.8833 436.748 65.25 434.998 65.25ZM434.973 63.1C436.956 63.1 438.514 62.475 439.648 61.225C440.798 59.9583 441.373 58.375 441.373 56.475C441.373 54.5583 440.798 52.9917 439.648 51.775C438.514 50.5583 436.964 49.95 434.998 49.95C433.014 49.95 431.439 50.5583 430.273 51.775C429.123 52.9917 428.548 54.5583 428.548 56.475C428.548 58.375 429.123 59.9583 430.273 61.225C431.439 62.475 433.006 63.1 434.973 63.1ZM442.473 51.475L441.048 51.125C441.048 49.7417 441.289 48.5333 441.773 47.5C442.273 46.45 442.998 45.6333 443.948 45.05C444.914 44.4667 446.106 44.175 447.523 44.175L447.223 47.125C445.689 47.125 444.514 47.4833 443.698 48.2C442.881 48.9 442.473 49.9917 442.473 51.475Z" fill="#1E7847"/>
<path d="M47.76 74.12C43.2533 74.12 39.32 73.04 35.96 70.88C32.6 68.6933 29.9867 65.5733 28.12 61.52C26.28 57.4667 25.36 52.6 25.36 46.92C25.36 41.0533 26.32 36.1333 28.24 32.16C30.1867 28.16 32.84 25.1467 36.2 23.12C39.5867 21.0667 43.44 20.04 47.76 20.04C53.76 20.04 58.4533 21.5067 61.84 24.44C65.2533 27.3733 67.44 31.1867 68.4 35.88L58.32 37.72C57.4933 35 56.1733 32.8 54.36 31.12C52.5733 29.44 50.3733 28.6 47.76 28.6C45.52 28.6 43.4667 29.28 41.6 30.64C39.76 31.9733 38.28 34 37.16 36.72C36.0667 39.44 35.52 42.84 35.52 46.92C35.52 50.76 36 54.0667 36.96 56.84C37.92 59.6133 39.3067 61.7467 41.12 63.24C42.96 64.7333 45.1733 65.48 47.76 65.48C51.0667 65.48 53.6533 64.5867 55.52 62.8C57.3867 60.9867 58.32 58.68 58.32 55.88H68.4C68.4 59.7467 67.56 63.04 65.88 65.76C64.2267 68.4533 61.8533 70.52 58.76 71.96C55.6933 73.4 52.0267 74.12 47.76 74.12ZM21.6 54.2V48.84H50V54.2H21.6ZM21.6 45.4V40.04H50V45.4H21.6Z" fill="black"/>
</g>
<defs>
<clipPath id="clip0_124_278">
<rect width="470" height="100" fill="white"/>
</clipPath>
</defs>
</svg>
